<?xml version="1.0" standalone="no"?>
<!DOCTYPE svg PUBLIC "-//W3C//DTD SVG 1.1//EN" "http://www.w3.org/Graphics/SVG/1.1/DTD/svg11.dtd" >
<svg xmlns="http://www.w3.org/2000/svg">
<metadata></metadata>
<defs>
<font id="SkyTextMediumRegular" horiz-adv-x="1241" >
<font-face units-per-em="2048" ascent="1638" descent="-410" />
<missing-glyph horiz-adv-x="409" />
<glyph horiz-adv-x="0" />
<glyph horiz-adv-x="2048" />
<glyph unicode="&#xd;" horiz-adv-x="409" />
<glyph unicode=" "  horiz-adv-x="409" />
<glyph unicode="&#x09;" horiz-adv-x="409" />
<glyph unicode="&#xa0;" horiz-adv-x="409" />
<glyph unicode="!" horiz-adv-x="573" d="M154 115.5q0 54.5 39.5 93.5t94 39t93.5 -39t39 -93t-39 -94t-93 -40t-94 39.5t-40 94zM160 1227v12q0 41 30.5 68.5t100.5 27.5t127 -12l-51 -797q-5 -63 -76 -63q-33 0 -74 14z" />
<glyph unicode="&#x22;" horiz-adv-x="798" d="M115 1243v12q0 80 110 80q70 0 107 -10l-41 -481q-5 -56 -70 -56q-27 0 -65 13zM473 1243v12q0 80 111 80q66 0 106 -10l-41 -481q-5 -56 -69 -56q-27 0 -66 13z" />
<glyph unicode="#" d="M47 431.5q0 37.5 20.5 57t49.5 19.5h155l74 299h-196q-9 54 -9 76q0 86 70 86h170l76 323q10 31 33.5 39t67.5 8t79 -14l-86 -356h272l76 323q10 31 33.5 39t67.5 8t79 -14l-86 -356h191q6 -36 6 -76q0 -86 -68 -86h-164l-71 -299h207q8 -56 8 -90.5t-20.5 -53 t-49.5 -18.5h-182l-76 -311q-16 -47 -86 -47q-50 0 -92 14l82 344h-270l-74 -309q-10 -31 -33.5 -40t-52.5 -9q-52 0 -94 14l82 344h-181q-8 48 -8 85.5zM444 508h271l73 299h-272z" />
<glyph unicode="$" d="M129 98q0 152 102 152q25 0 52.5 -8.5t63.5 -18.5q94 -26 194 -26v383l-47 14q-280 89 -338 265q-19 56 -19 117.5t19.5 121t65.5 108.5q104 111 319 129v131q0 23 11 44.5t48 21.5t80 -14v-183q194 -13 358 -73v-27q0 -150 -102 -150q-23 0 -44.5 7.5t-51.5 16.5 q-82 25 -160 28v-363l61 -18q180 -53 270.5 -143.5t90.5 -242t-100.5 -254t-321.5 -122.5v-137q0 -23 -11.5 -44.5t-48.5 -21.5t-79 14v189q-222 10 -410 76zM354 982q0 -60 41 -104t146 -71v330q-96 -4 -147 -55q-40 -40 -40 -100zM680 195q98 10 143 56t45 118t-51 112.5 t-137 65.5v-352z" />
<glyph unicode="%" horiz-adv-x="1449" d="M31 987q0 176 91 276q83 91 216 91q132 0 217 -91q92 -98 92 -276q0 -177 -92 -275q-85 -91 -217 -91q-133 0 -216 91q-91 100 -91 275zM223 989q0 -213 115 -213q51 0 84 51.5t33 161.5q0 111 -33 159t-84 48q-115 0 -115 -207zM274 18l740 1274q26 47 82 47 q31 0 51 -11t31 -17l-738 -1274q-26 -47 -84 -47q-34 0 -82 28zM803 354q0 176 91 276q83 91 216 91q132 0 217 -91q92 -98 92 -276q0 -177 -92 -275q-85 -91 -217 -91q-133 0 -216 91q-91 100 -91 275zM995 356q0 -213 115 -213q51 0 84 51.5t33 161.5q0 111 -33 159 t-84 48q-115 0 -115 -207z" />
<glyph unicode="&#x26;" horiz-adv-x="1337" d="M70 381q0 129 70.5 224t211.5 143q-119 132 -119 264q0 135 99 228q110 103 301 103q172 0 350 -79q4 -24 4 -65t-27.5 -73t-62.5 -32t-57.5 7t-49.5 16q-74 24 -161.5 24t-127.5 -44t-40 -98.5t22.5 -97.5t83.5 -104l320 -324l143 266q34 66 123 66q63 0 115 -25 l-244 -442l303 -315q-68 -35 -138 -35t-105 20.5t-78 67.5l-93 100q-141 -194 -397 -194q-215 0 -334 118q-112 113 -112 281zM291 403q0 -89 63 -155q62 -66 204.5 -66t223.5 129l-315 322q-176 -72 -176 -230z" />
<glyph unicode="'" horiz-adv-x="440" d="M115 1243v12q0 80 110 80q70 0 107 -10l-41 -481q-5 -56 -70 -56q-27 0 -65 13z" />
<glyph unicode="(" horiz-adv-x="751" d="M78 473q0 301 164 551q147 222 366 334q84 -37 84 -109q0 -47 -35 -71q-168 -117 -261 -288t-93 -415q0 -466 354 -706q33 -25 33 -61q0 -80 -84 -116q-225 122 -366 336q-162 244 -162 545z" />
<glyph unicode=")" horiz-adv-x="751" d="M57 1240q0 79 84 118q218 -111 366 -334q165 -249 165 -551q0 -301 -162 -545q-142 -215 -367 -336q-84 36 -84 109q0 47 33 68q354 238 354 704q0 246 -93 417t-261 288q-35 25 -35 62z" />
<glyph unicode="*" horiz-adv-x="690" d="M-4 1114.5q0 26.5 21.5 48t59.5 21.5t68 -15l152 -67l-29 262q29 29 67 29t62.5 -22.5t24.5 -70.5l-25 -198l246 88q51 -33 51 -73q0 -81 -94 -89l-184 -14l194 -211q-4 -41 -28.5 -65.5t-52.5 -24.5q-57 0 -93 67l-90 172l-139 -237h-12q-41 0 -68 22.5t-27 60.5t43 85 l127 131l-260 41q-14 33 -14 59.5z" />
<glyph unicode="+" d="M113 529q0 58 23.5 77t60.5 19h325v346q0 80 96 80q25 0 93 -9v-417h407q8 -31 8 -89t-23.5 -77t-60.5 -19h-331v-362q0 -80 -97 -80q-32 0 -92 8v434h-401q-8 31 -8 89z" />
<glyph unicode="," horiz-adv-x="374" d="M8 -233l117 370q25 82 96 82q41 0 64.5 -25.5t23.5 -65.5t-12 -85q-42 -156 -133 -226q-66 -50 -141 -50h-15z" />
<glyph unicode="-" horiz-adv-x="727" d="M55 520q0 59 25.5 82t62.5 23h521q8 -64 8 -95q0 -106 -86 -106h-520q-11 88 -11 96z" />
<glyph unicode="." horiz-adv-x="407" d="M70 115.5q0 54.5 38.5 93.5t93 39t94.5 -39t40 -93t-40 -93t-94 -39t-93 38.5t-39 93z" />
<glyph unicode="/" horiz-adv-x="663" d="M39 -66l387 1371q12 37 41 48t80 11t94 -21l-387 -1368q-10 -39 -40 -49t-65 -10q-60 0 -110 18z" />
<glyph unicode="0" horiz-adv-x="1259" d="M92 666q0 332 150 516q142 172 385 172q242 0 387 -172q153 -181 153 -516t-153 -516q-144 -173 -387 -173q-244 0 -385 173q-150 184 -150 516zM326 666q0 -258 80 -377t221 -119t225 121t84 375t-84 374.5t-225 120.5t-221 -118.5t-80 -376.5z" />
<glyph unicode="1" horiz-adv-x="796" d="M39 1075.5q0 71.5 72 112.5l295 143h178v-1247q0 -96 -117 -96q-73 0 -115 10v1077l-252 -119q-61 48 -61 119.5z" />
<glyph unicode="2" horiz-adv-x="1032" d="M35 78q0 118 63 170l369 332q131 113 171 166q73 97 73 188.5t-59.5 150t-182.5 58.5q-98 0 -195 -53q-38 -21 -69 -37.5t-67 -16.5t-63.5 42t-31.5 116q72 57 183.5 104.5t252.5 47.5q221 0 342 -113t121 -297q0 -235 -285 -451l-319 -276h616q10 -37 11 -98 q0 -111 -91 -111h-831q-8 32 -8 78z" />
<glyph unicode="3" horiz-adv-x="1101" d="M82 100q2 78 30.5 119t66.5 41t69 -12t70 -26q109 -38 225 -38t179.5 57.5t63.5 143.5t-59 143.5t-207 57.5h-164q-33 0 -55 22.5t-22 74.5t10 89h213q135 0 194.5 47t59.5 139q0 122 -118 166q-42 15 -107 15t-110.5 -10.5t-82.5 -22.5t-65.5 -22.5t-66.5 -10.5 t-66.5 43t-30.5 119q197 111 440 111q213 0 329 -103q101 -91 101 -250q0 -111 -61.5 -187.5t-165.5 -109.5q117 -20 194.5 -104t77.5 -195.5t-35 -186.5t-99 -126q-133 -107 -368.5 -107t-439.5 123z" />
<glyph unicode="4" horiz-adv-x="1167" d="M51 388q0 77 53 155l558 788h241v-835h205q10 -37 10 -95.5t-25.5 -81t-60.5 -22.5h-129v-217q0 -92 -110 -92q-71 0 -111 10v299h-619q-12 48 -12 91zM297 494h385v544z" />
<glyph unicode="5" horiz-adv-x="1060" d="M57 94q0 80 32 120t68 40t65.5 -10.5t67.5 -21.5q111 -32 195 -32q147 0 215 64.5t68 171.5q0 106 -73.5 166.5t-174 60.5t-158 -23.5t-110.5 -62.5l-158 56l72 708h756q10 -37 10 -96q0 -109 -88 -109h-500l-45 -366q47 33 101.5 55.5t152.5 22.5t182 -34t143 -90 q121 -118 121 -288q0 -197 -127 -316q-136 -128 -379 -128t-436 112z" />
<glyph unicode="6" horiz-adv-x="1148" d="M92 655q0 346 157 524q147 167 406 167q201 0 361 -78v-29q0 -143 -105 -143q-27 0 -51 7t-54 14q-94 22 -151 22q-166 0 -246.5 -105.5t-91.5 -320.5q59 53 140.5 98t196 45t197.5 -35t138 -94q111 -119 111 -299q0 -190 -126 -316q-135 -135 -358 -135q-237 0 -376 171 q-148 180 -148 507zM326 549q8 -184 84.5 -281.5t200.5 -97.5t192.5 73.5t68.5 190.5t-68.5 179.5t-178 62.5t-180 -41t-119.5 -86z" />
<glyph unicode="7" horiz-adv-x="1001" d="M35 1234q0 65 8 97h932v-153l-547 -1119q-23 -47 -60.5 -61t-78.5 -14q-82 0 -142 24l564 1114h-588q-41 0 -64.5 23.5t-23.5 88.5z" />
<glyph unicode="8" horiz-adv-x="1153" d="M66 360q0 129 67.5 214t183.5 122q-140 54 -189 194q-17 48 -17 111.5t27.5 128t85.5 114.5q128 112 354 112t352 -112q112 -99 112 -249q0 -160 -130 -255q-38 -27 -76 -44q117 -37 184 -123t67 -190.5t-32.5 -175t-97 -121.5t-159.5 -81t-221 -30t-221.5 30t-159.5 81 q-130 102 -130 274zM299 379.5q0 -92.5 75 -152t200 -59.5t202.5 60t77.5 151t-70.5 155t-208 64t-207 -63t-69.5 -155.5zM336 969q0 -86 65.5 -140.5t176.5 -54.5t175 54.5t64 140.5t-61.5 137t-177.5 51q-117 0 -179.5 -51t-62.5 -137z" />
<glyph unicode="9" horiz-adv-x="1157" d="M68 909q0 192 126 317q131 128 362 128t369 -169t138 -512t-154 -516t-426 -173q-187 0 -342 73q-2 20 -2 27q0 143 107 143q27 0 52.5 -6t53.5 -12q87 -19 131 -19q168 0 255 96.5t98 325.5q-66 -59 -144 -94t-188 -35q-210 0 -329 129q-107 115 -107 297zM295 910 q0 -112 62.5 -180t187.5 -68q168 0 282 114q-9 385 -282 385q-111 0 -180.5 -69.5t-69.5 -181.5z" />
<glyph unicode=":" horiz-adv-x="493" d="M104 793.5q0 54.5 39 94.5t93.5 40t94.5 -40t40 -94t-40 -93t-94 -39t-93.5 38.5t-39.5 93zM106 115.5q0 54.5 39 93.5t93.5 39t93.5 -39t39 -93t-39 -94t-93 -40t-93.5 39.5t-39.5 94z" />
<glyph unicode=";" horiz-adv-x="493" d="M94 -233l115 370q12 41 39.5 61.5t60.5 20.5t60.5 -24.5t27.5 -68.5t-13 -87q-47 -155 -136 -222q-66 -50 -139 -50h-15zM156 793.5q0 54.5 38.5 94.5t93 40t93.5 -40t39 -94t-39 -93t-93 -39t-93 38.5t-39 93z" />
<glyph unicode="&#x3c;" d="M184 449v172l787 423q26 -60 26 -102.5t-12 -79.5t-61 -61l-514 -262l514 -275q49 -27 61 -63.5t12 -68.5q0 -54 -26 -114z" />
<glyph unicode="=" horiz-adv-x="1181" d="M152 308q0 58 23.5 76.5t60.5 18.5h788q8 -31 8 -89t-23.5 -76.5t-60.5 -18.5h-788q-8 31 -8 89zM152 740q0 58 23.5 77t60.5 19h788q8 -31 8 -89.5t-23.5 -77t-60.5 -18.5h-788q-8 31 -8 89z" />
<glyph unicode="&#x3e;" d="M244 121q0 43 12 79t61 62l514 266l-514 271q-49 27 -61 63.5t-12 68.5q0 56 26 113l787 -430v-172l-787 -424q-26 60 -26 103z" />
<glyph unicode="?" horiz-adv-x="944" d="M39 1227q74 49 188.5 85t226 36t193.5 -26t137 -72q113 -93 113 -244q0 -101 -59 -184q-44 -63 -113 -100.5t-111.5 -62t-73.5 -49.5q-62 -53 -73 -127q-4 -20 -23.5 -38.5t-57.5 -18.5t-79 14q-4 32 -4 85t26.5 106t67.5 92t88 67.5t88 55.5q95 64 95 136.5t-54.5 116.5 t-137.5 44t-131 -11.5t-84 -25.5t-63.5 -25.5t-63.5 -11.5t-64.5 42t-30.5 116zM250 115.5q0 54.5 40 93.5t94 39t93 -39t39 -93t-39 -94t-93 -40t-94 39.5t-40 94z" />
<glyph unicode="@" horiz-adv-x="1419" d="M57 569q0 145 52.5 269.5t144.5 214.5t217 142t274.5 52t267 -50t197.5 -133q160 -166 160 -409q0 -202 -92 -315q-87 -107 -217 -107q-74 0 -115 38t-57 85q-29 -47 -76 -80.5t-119.5 -33.5t-123 21.5t-88.5 62.5q-81 87 -81 231q0 130 80 219q78 86 197.5 86 t187.5 -104h2q0 47 18.5 71.5t62.5 24.5t63 -8v-389q0 -92 73 -92q66 0 100 74.5t34 188t-33 194.5t-94 142q-134 134 -351 134q-211 0 -357 -140q-155 -150 -155 -387q0 -243 147 -391q140 -139 347 -139q101 0 167 19.5t95 28.5t58.5 9t51 -25.5t21.5 -54.5v-38 q0 -7 -2 -17q-201 -82 -367.5 -82t-288.5 52.5t-211 144.5t-139.5 219t-50.5 272zM559 551q0 -72 40 -124t126.5 -52t136.5 88v172q-14 41 -54 68.5t-87 27.5q-80 0 -121 -54t-41 -126z" />
<glyph unicode="A" horiz-adv-x="1234" d="M12 12l453 1309q70 18 134 18t96 -7t53 -22q39 -28 63 -98l412 -1198q-65 -26 -113.5 -26t-83.5 11t-51 58l-98 293h-525l-96 -293q-16 -45 -47 -57t-68 -12q-87 0 -129 24zM418 547h395l-197 594z" />
<glyph unicode="B" horiz-adv-x="1171" d="M127 106v1119q0 47 21.5 76.5t97.5 29.5h338q244 0 368 -97q111 -88 111 -249q0 -104 -59.5 -182t-163.5 -113q137 -33 203.5 -119t66.5 -190q0 -381 -518 -381h-346q-76 0 -97.5 29.5t-21.5 76.5zM350 203h217q160 0 233.5 44t73.5 148q0 86 -56 131q-73 58 -238 58 h-230v-381zM350 776h225q261 0 261 185q0 167 -253 167h-3h-230v-352z" />
<glyph unicode="C" horiz-adv-x="1134" d="M55 659q0 143 49.5 268.5t136.5 217.5q185 196 464 196q190 0 380 -75q5 -35 5 -49q0 -66 -29 -103t-60.5 -37t-56 8.5t-56.5 18.5q-83 26 -173 26t-166 -33.5t-133 -94.5q-119 -131 -119 -343q0 -217 119 -345q114 -121 297 -121q92 0 147 18t78 26.5t59.5 8.5t67.5 -34 t31 -99v-27q0 -12 -4 -29q-174 -75 -398 -75q-128 0 -247 50t-206 140q-186 192 -186 487z" />
<glyph unicode="D" horiz-adv-x="1298" d="M125 106v1119q0 47 21.5 76.5t97.5 29.5h280q332 0 525.5 -178t193.5 -477q0 -292 -193 -478q-203 -198 -532 -198h-274q-76 0 -97.5 29.5t-21.5 76.5zM354 209h183q202 0 329 117q138 127 138 354q0 206 -138 328q-127 114 -334 114h-178v-913z" />
<glyph unicode="E" horiz-adv-x="1032" d="M125 106v1119q0 47 21.5 76.5t97.5 29.5h688q10 -40 10 -100.5t-25.5 -84.5t-62.5 -24h-500v-356h529q8 -64 8 -108.5t-23.5 -67.5t-58.5 -23h-455v-358h596q8 -64 8 -110.5t-24.5 -72.5t-61.5 -26h-628q-76 0 -97.5 29.5t-21.5 76.5z" />
<glyph unicode="F" horiz-adv-x="1011" d="M135 -2v1227q0 47 21.5 76.5t97.5 29.5h721q8 -32 8 -99t-25.5 -88.5t-64.5 -21.5h-528v-389h559q10 -37 10 -96t-25.5 -83t-60.5 -24h-483v-446q0 -96 -117 -96q-70 0 -113 10z" />
<glyph unicode="G" horiz-adv-x="1320" d="M59 670q0 141 49.5 264t137.5 213t212 142t271 52q266 0 457 -102v-27q0 -141 -109 -141q-27 0 -54.5 9.5t-64.5 20.5q-99 29 -208 29t-189 -32.5t-138 -91.5q-124 -128 -124 -336q0 -212 124 -350q125 -138 316 -138q145 0 262 64v307h-256q-83 0 -83 102q0 55 10 93 h430q76 0 97.5 -30t21.5 -77v-526q-111 -66 -227 -102t-265.5 -36t-273 55.5t-211.5 149.5q-185 198 -185 488z" />
<glyph unicode="H" horiz-adv-x="1357" d="M137 -2v1241q0 96 117 96q70 0 113 -10v-559h622v473q0 96 117 96q72 0 115 -10v-1241q0 -41 -26 -68.5t-94.5 -27.5t-111.5 10v569h-622v-483q0 -96 -117 -96q-70 0 -113 10z" />
<glyph unicode="I" horiz-adv-x="499" d="M135 -2v1241q0 96 117 96q71 0 113 -10v-1241q0 -96 -117 -96q-70 0 -113 10z" />
<glyph unicode="J" horiz-adv-x="917" d="M16 127q0 66 29 99.5t62 33.5t60.5 -10l60.5 -22q84 -33 155.5 -33t122.5 47t51 151v846q0 96 117 96q72 0 112 -10v-946q0 -197 -106.5 -295t-290.5 -98q-119 0 -204 25.5t-127 52t-42 63.5z" />
<glyph unicode="K" horiz-adv-x="1161" d="M135 -2v1241q0 96 117 96q71 0 113 -10v-610l471 555q29 35 60.5 50t76.5 15q99 0 157 -35l-536 -616l573 -659q-72 -37 -140 -37t-102 17.5t-65 51.5l-495 574v-547q0 -96 -117 -96q-70 0 -113 10z" />
<glyph unicode="L" horiz-adv-x="1024" d="M127 106v1133q0 96 117 96q72 0 112 -10v-1116h633q10 -57 10 -109q0 -100 -104 -100h-649q-76 0 -97.5 29.5t-21.5 76.5z" />
<glyph unicode="M" horiz-adv-x="1581" d="M76 12l133 1297q63 26 154 26t139.5 -27.5t64.5 -97.5l226 -891l227 885q16 70 65.5 100.5t112.5 30.5q108 0 178 -20l129 -1303q-55 -22 -106 -22t-82 16.5t-35 61.5l-88 1052l-250 -932q-16 -57 -56 -78.5t-86 -21.5q-92 0 -136 16l-283 1016l-94 -1054 q-7 -76 -109 -76q-54 0 -104 22z" />
<glyph unicode="N" horiz-adv-x="1366" d="M135 -4v1319q46 20 124.5 20t114.5 -21.5t62 -62.5l596 -921l-12 915q0 37 23.5 63.5t86.5 26.5t103 -10v-1319q-47 -18 -116 -18t-103.5 21.5t-57.5 56.5l-616 960l12 -948q0 -90 -110 -90q-73 0 -107 8z" />
<glyph unicode="O" horiz-adv-x="1421" d="M55 670q0 143 48.5 269t134.5 218q186 199 473 199q145 0 266 -53.5t207 -145.5q182 -195 182 -487t-182 -493q-86 -95 -207 -149.5t-266 -54.5t-266 54.5t-207 149.5q-183 202 -183 493zM295 670q0 -214 119 -352q121 -140 295 -140q170 0 295 142q122 139 122 348 q0 208 -120 344q-121 139 -295 139q-175 0 -295 -137q-121 -138 -121 -344z" />
<glyph unicode="P" horiz-adv-x="1120" d="M135 -2v1227q0 47 21.5 76.5t97.5 29.5h301q257 0 395 -131q131 -122 131 -321q0 -204 -137 -329q-141 -128 -369 -128h-210v-338q0 -96 -117 -96q-70 0 -113 10zM365 625h174q160 0 233.5 67.5t73.5 185.5t-74 181t-215 63h-192v-497z" />
<glyph unicode="Q" horiz-adv-x="1427" d="M55 670q0 143 48.5 269t134.5 218q186 199 473 199q145 0 266 -53.5t207 -145.5q182 -195 182 -487q0 -276 -164 -472.5t-430 -222.5l549 -125q0 -92 -39 -136q-38 -43 -83 -43h-2q-82 2 -134 16l-553 131v12q0 115 115 150q-250 27 -413 227q-157 193 -157 463zM295 670 q0 -214 119 -352q121 -140 295 -140q170 0 295 142q122 139 122 348q0 208 -120 344q-121 139 -295 139q-175 0 -295 -137q-121 -138 -121 -344z" />
<glyph unicode="R" horiz-adv-x="1155" d="M135 -2v1227q0 47 21.5 76.5t97.5 29.5h334q229 0 356 -109.5t127 -301.5q0 -160 -98 -271q-101 -114 -268 -133l413 -491q-68 -37 -139.5 -37t-109.5 19.5t-78 70.5l-334 428h-92v-422q0 -96 -117 -96q-70 0 -113 10zM365 702h188q289 0 289 218q0 202 -252 202h-225 v-420z" />
<glyph unicode="S" horiz-adv-x="1110" d="M72 92q0 152 104 152q27 0 63.5 -8.5t82.5 -18.5q126 -27 247 -27t181.5 51.5t60.5 129.5q0 103 -120 147q-38 14 -87 29l-170 47q-201 55 -279.5 153.5t-78.5 225.5q0 244 248 338q92 35 263 35t394 -78v-29q0 -147 -100 -147q-27 0 -58.5 7t-71.5 14q-126 22 -202 22 t-123 -13.5t-76 -35.5q-53 -43 -53 -109t46 -100.5t165 -67.5l180 -51q358 -94 359 -373q0 -287 -283 -373q-97 -30 -232 -30q-209 0 -458 81z" />
<glyph unicode="T" horiz-adv-x="1073" d="M6 1222.5q0 68.5 26.5 88.5t67.5 20h959q8 -31 8 -94q0 -115 -94 -115h-320v-1038q0 -96 -116 -96q-73 0 -113 10v1124h-410q-8 32 -8 100.5z" />
<glyph unicode="U" horiz-adv-x="1325" d="M111 551v688q0 41 25.5 68.5t94.5 27.5t109 -10v-780q0 -166 83 -265.5t233 -99.5t237.5 99.5t87.5 265.5v694q0 96 117 96q70 0 110 -10v-774q0 -248 -143 -409q-150 -169 -408 -169q-255 0 -405 169q-141 159 -141 409z" />
<glyph unicode="V" horiz-adv-x="1216" d="M14 1311q70 28 120 28t85 -11t51 -58l351 -1067l346 1067q16 45 49 57t70 12q88 0 128 -24l-421 -1229q-23 -61 -65 -82.5t-98 -21.5q-102 0 -163 22z" />
<glyph unicode="W" horiz-adv-x="1689" d="M31 1309q60 26 115 26t87.5 -18.5t42.5 -69.5l103 -555q49 -266 84 -497q27 196 104 505l131 539q22 96 168 96q68 0 123 -16l148 -619q62 -256 106 -505q23 155 51.5 305.5t38.5 206.5l97 546q8 47 38.5 64.5t71.5 17.5q61 0 119 -22l-254 -1225q-14 -66 -57 -84 t-92 -18q-115 0 -160 16l-172 705q-8 37 -17.5 80.5t-18.5 92.5q-21 119 -42 199q-41 -203 -82 -372l-150 -619q-16 -63 -53.5 -82.5t-86.5 -19.5q-115 0 -167 18z" />
<glyph unicode="X" horiz-adv-x="1191" d="M20 18l435 660l-418 625q58 32 124 32t101 -13t60 -52l278 -451l279 451q23 37 53.5 51t68.5 14q93 0 140 -30l-410 -637l438 -648q-58 -32 -125 -32t-103 13t-60 52l-295 459l-289 -455q-25 -39 -55.5 -54t-72.5 -15q-102 0 -149 30z" />
<glyph unicode="Y" horiz-adv-x="1181" d="M-2 1303q58 32 124 32t102 -13t61 -52l319 -514l318 512q23 39 53.5 53t69.5 14q94 0 141 -30l-475 -740v-481q0 -96 -117 -96q-70 0 -113 10v565z" />
<glyph unicode="Z" horiz-adv-x="1095" d="M63 94q0 76 54 152l631 876h-588q-90 0 -90 109q0 68 8 100h928q12 -48 12 -97q0 -86 -55 -165l-623 -860h682q8 -32 8 -98q0 -111 -90 -111h-864q-13 52 -13 94z" />
<glyph unicode="[" horiz-adv-x="770" d="M115 -307v1734q0 43 19.5 71t88.5 28h414q10 -35 10 -92q0 -99 -82 -99h-241v-1550h313q10 -35 10 -92q0 -99 -82 -99h-342q-70 0 -89 28t-19 71z" />
<glyph unicode="\" horiz-adv-x="722" d="M39 1343q43 20 94 20.5t81 -11t40 -47.5l387 -1371q-52 -18 -98 -18t-76.5 10.5t-40.5 48.5z" />
<glyph unicode="]" horiz-adv-x="770" d="M113 -313q0 98 82 98h241v1550h-313q-10 35 -10 92q0 99 82 99h342q70 0 89 -28t19 -71v-1734q0 -43 -19.5 -71t-88.5 -28h-414q-10 35 -10 93z" />
<glyph unicode="^" horiz-adv-x="1253" d="M315 932l205 317q62 25 116 25t83 -16.5t51 -47.5l178 -276q-46 -23 -92 -23q-85 0 -115 52l-108 184l-117 -193q-28 -43 -102 -43q-49 0 -99 21z" />
<glyph unicode="_" horiz-adv-x="970" d="M-14 -154h999v-102h-999v102z" />
<glyph unicode="`" horiz-adv-x="954" d="M393 1348q0 39 21.5 70.5t62.5 43.5l328 -305q-45 -57 -104.5 -57t-110.5 35l-131 92q-70 50 -66 121z" />
<glyph unicode="a" horiz-adv-x="1056" d="M59 283q0 236 239 309q81 24 190.5 24t244.5 -24v51q0 100 -45 142t-162 42q-93 0 -157 -16t-91.5 -23.5t-61.5 -7.5t-54.5 37t-20.5 69v40q0 10 2 20q183 62 392 62q331 0 391 -233q20 -75 20 -173v-215q0 -187 14.5 -258.5t28.5 -120.5q-45 -20 -98 -20t-79 15t-40 41 q-19 36 -27 134h-2q-124 -194 -352 -194q-157 0 -247 88q-85 83 -85 211zM281 299q0 -66 47 -100.5t134 -34.5t159.5 57.5t113.5 143.5v86q-104 18 -186 18q-268 0 -268 -170z" />
<glyph unicode="b" horiz-adv-x="1161" d="M111 6q10 163 10 377v915q0 95 112 95q67 0 111 -11v-514q124 140 320 140q176 0 302 -128q140 -142 140 -376q0 -220 -125 -370t-322 -150q-106 0 -193 48t-132 134v-46q0 -73 -33 -99.5t-87.5 -26.5t-102.5 12zM344 426q0 -106 73 -179t185.5 -73t193.5 83t81 236.5 t-79 239.5t-204 86q-86 0 -150.5 -39t-99.5 -104v-250z" />
<glyph unicode="c" horiz-adv-x="933" d="M55 492q0 213 137 360q140 149 363 149q182 0 326 -79q2 -10 2 -20v-17q0 -57 -24.5 -91t-53 -34t-50.5 7t-47 17q-69 25 -133.5 25t-115.5 -20.5t-90 -61.5q-84 -88 -84 -235q0 -150 85 -235q83 -83 208 -83q70 0 119 18q90 35 121.5 35t56 -28.5t24.5 -85.5 q0 -23 -4 -47q-151 -82 -343 -82q-219 0 -360 148q-137 145 -137 360z" />
<glyph unicode="d" horiz-adv-x="1161" d="M55 500q0 238 147 382q127 126 310 126t305 -142v432q0 95 113 95q66 0 110 -11v-991q0 -177 13 -389q-48 -12 -109 -12q-113 0 -113 108v58h-2q-108 -174 -331 -174q-175 0 -302 130q-141 146 -141 388zM285 504q0 -148 75 -239q78 -93 212 -93q71 0 139.5 35t107.5 106 v371q-39 70 -106.5 103.5t-138.5 33.5t-124 -24.5t-90 -66.5q-75 -87 -75 -226z" />
<glyph unicode="e" horiz-adv-x="1060" d="M55 496q0 218 139 366q137 146 343 146q220 0 349 -154q118 -142 118 -338q0 -51 -11 -102h-710q14 -119 93 -181.5t208 -62.5q92 0 147 20q100 35 136 35t59.5 -32.5t23.5 -65.5q0 -44 -4 -70q-168 -80 -366 -80q-243 0 -386 148q-139 145 -139 371zM281 573h514 q-10 111 -75 186t-180.5 75t-182 -72t-76.5 -189z" />
<glyph unicode="f" horiz-adv-x="724" d="M29 877q0 92 75 92h70v108q0 176 97.5 261t250 85t283.5 -47v-30q0 -127 -90 -127q-33 0 -70 10t-102 10q-146 0 -146 -176v-94h308q10 -31 10 -82q0 -92 -76 -92h-242v-713q0 -94 -114 -94q-72 0 -109 10v797h-137q-8 28 -8 82z" />
<glyph unicode="g" horiz-adv-x="1036" d="M41 -101.5q0 144.5 162 226.5q-49 43 -49 94q0 89 106 137q-78 39 -134 113t-56 167t28.5 158.5t83.5 112.5q117 101 312 101q102 0 194 -35q29 14 63.5 32.5t70.5 36.5q91 44 128 56q23 -10 42.5 -34t19.5 -56.5t-17.5 -53t-46 -32t-67.5 -15.5t-82 -10l2 -4 q53 -41 88 -105.5t35 -136.5q0 -160 -109.5 -252t-312.5 -92q-49 0 -71.5 5t-45.5 5t-36 -14t-13 -37q0 -42 117 -59l272 -39q158 -23 219.5 -92.5t61.5 -165.5q0 -132 -112 -223q-130 -105 -384 -105q-223 0 -352 90q-117 82 -117 226.5zM236 -64.5q0 -80.5 69 -133 t207.5 -52.5t205 42t66.5 90t-29.5 67.5t-107.5 34.5l-194 32q-105 18 -160 45q-57 -45 -57 -125.5zM283 655q0 -90 60.5 -143t153.5 -53t152.5 52t59.5 142t-57.5 142.5t-153.5 52.5t-155.5 -51.5t-59.5 -141.5z" />
<glyph unicode="h" horiz-adv-x="1118" d="M117 -2v1300q0 95 112 95q67 0 111 -11v-538q49 68 129 116t172 48t156.5 -25t114.5 -76q106 -110 106 -321v-504q0 -94 -115 -94q-68 0 -108 10v563q0 131 -57.5 193.5t-146 62.5t-154.5 -38t-97 -97v-600q0 -94 -113 -94q-70 0 -110 10z" />
<glyph unicode="i" horiz-adv-x="460" d="M104 1301q0 52 37 89t89 37t89 -36.5t37 -89t-37 -89t-89 -36.5t-89 36.5t-37 88.5zM117 -2v905q0 94 112 94q71 0 111 -10v-905q0 -94 -115 -94q-68 0 -108 10z" />
<glyph unicode="j" horiz-adv-x="485" d="M-88 -215q63 20 105 37.5t68 44.5q48 50 48 174v854q0 94 113 94q70 0 110 -10v-901q0 -209 -109 -326q-96 -101 -325 -164q-69 50 -69 113q0 64 59 84zM123 1301q0 52 36 89t88 37t89 -36.5t37 -89t-37 -89t-89 -36.5t-88 36.5t-36 88.5z" />
<glyph unicode="k" horiz-adv-x="1001" d="M117 -2v1300q0 95 112 95q67 0 111 -11v-831l344 375q29 31 63.5 47t84.5 16q77 0 147 -24l-418 -453l445 -492q-66 -32 -141.5 -32t-114.5 26.5t-62 51.5l-348 403v-387q0 -94 -113 -94q-70 0 -110 10z" />
<glyph unicode="l" horiz-adv-x="456" d="M117 -2v1300q0 95 112 95q67 0 111 -11v-1300q0 -94 -113 -94q-70 0 -110 10z" />
<glyph unicode="m" horiz-adv-x="1636" d="M117 -2v983q61 16 98 16q119 0 119 -125l2 -24q43 68 116.5 114t166.5 46t172 -50.5t114 -148.5q120 199 312 199q162 0 240.5 -100.5t78.5 -274.5v-551q0 -94 -113 -94q-70 0 -110 10v612q0 104 -47 154.5t-123 50.5t-127 -38t-78 -91v-604q0 -94 -113 -94 q-70 0 -110 10v612q0 100 -46 152.5t-122 52.5t-128 -38t-79 -89v-606q0 -94 -113 -94q-70 0 -110 10z" />
<glyph unicode="n" horiz-adv-x="1116" d="M117 -2v983q61 16 98 16q119 0 119 -125l2 -28q51 72 134 118t187 46q166 0 262.5 -108.5t96.5 -311.5v-506q0 -94 -113 -94q-70 0 -110 10v565q0 254 -220 254q-66 0 -132 -37t-101 -98v-600q0 -94 -113 -94q-70 0 -110 10z" />
<glyph unicode="o" horiz-adv-x="1130" d="M55 494q0 211 143 360q147 152 369 152q223 0 367 -152q141 -148 141 -360q0 -219 -138 -363q-145 -151 -370 -151q-226 0 -371 148q-141 145 -141 366zM283 494q0 -154 89 -247q79 -83 194 -83q52 0 102.5 20.5t90.5 61.5q89 91 89 248q0 148 -83 240q-79 87 -198 87 q-114 0 -197 -87q-87 -91 -87 -240z" />
<glyph unicode="p" horiz-adv-x="1159" d="M117 -385v1366q61 16 113 16q95 0 104 -125l2 -38q120 172 330 172q174 0 300 -132q138 -145 138 -378q0 -245 -146 -390q-127 -124 -305 -124q-111 0 -188.5 44t-124.5 99v-426q0 -94 -113 -94q-70 0 -110 10zM340 305q33 -59 98.5 -99t140 -40t128 23.5t90.5 66.5 q77 89 77 233q0 138 -70 227q-79 101 -214 101q-74 0 -142.5 -36t-107.5 -107v-369z" />
<glyph unicode="q" horiz-adv-x="1159" d="M55 492q0 230 137 376q130 138 308 138q119 0 200.5 -55.5t122.5 -125.5l2 47q4 125 106 125q52 0 111 -16v-1282q0 -41 -23 -67.5t-90 -26.5t-110 10v508q-59 -72 -143 -105.5t-171 -33.5t-168 35.5t-143 102.5q-139 147 -139 370zM285 487q0 -136 73 -226 q76 -95 210 -95q73 0 142.5 37t106.5 108v252q0 107 -73.5 180.5t-178.5 73.5q-133 0 -210 -99q-70 -89 -70 -231z" />
<glyph unicode="r" horiz-adv-x="745" d="M133 -2v983q61 16 98 16q119 0 119 -125v-71h4q82 200 273 200q49 0 104 -10q12 -43 12 -78q0 -114 -112 -114h-2h-37q-106 0 -171 -55.5t-65 -172.5v-489q0 -41 -23 -67.5t-90 -26.5t-110 10z" />
<glyph unicode="s" horiz-adv-x="956" d="M61 119.5q0 35.5 22.5 68.5t55.5 33t67 -8t74 -19q94 -28 174 -28t118 9t58 25q36 26 36 73.5t-35 71.5t-123 48l-146 41q-166 47 -231 115.5t-65 171.5q0 190 216 259q76 24 219.5 24t340.5 -66l2 -33q0 -127 -88 -127q-45 0 -114 21.5t-175 21.5q-178 0 -178 -92 q0 -39 21 -55q34 -29 122 -51l154 -43q168 -47 236.5 -117t68.5 -176q0 -204 -214 -275q-81 -26 -191 -26q-210 0 -420 73q-5 25 -5 60.5z" />
<glyph unicode="t" horiz-adv-x="825" d="M8 897q0 92 76 92h88v141q0 92 62 117q26 10 72 10t85 -14v-254h336q10 -31 10 -82q0 -92 -75 -92h-271v-477q0 -78 37 -121t109 -43q51 0 85 14q61 27 85 27q84 0 84 -111v-21q0 -11 -3 -22q-126 -75 -280 -75q-157 0 -248 97q-88 94 -88 247v485h-156q-8 28 -8 82z" />
<glyph unicode="u" horiz-adv-x="1122" d="M100 399v504q0 94 113 94q69 0 111 -10v-569q0 -129 60 -188.5t142 -59.5q162 0 250 145v588q0 94 113 94q72 0 112 -10v-600q0 -215 33 -377q-48 -23 -105 -23q-1 1 -3 1q-59 0 -84 18.5t-35 44t-11 56t-5 55.5h-3q-119 -180 -327 -180q-248 0 -332 230q-29 79 -29 187z " />
<glyph unicode="v" horiz-adv-x="956" d="M0 971q60 26 110 26t81.5 -10t48.5 -55l137 -406q29 -86 54.5 -161.5t47.5 -161.5h4q23 86 50.5 160.5t56.5 162.5l135 404q14 41 46 54t66 13q73 0 121 -24l-337 -901q-18 -49 -51.5 -67.5t-79.5 -18.5q-83 0 -132 18z" />
<glyph unicode="w" horiz-adv-x="1411" d="M10 971q60 26 114 26t85 -18t41 -68l84 -395q18 -88 32.5 -164t28.5 -147q8 33 18.5 77t21.5 89q21 86 46 161l101 363q16 59 50 80.5t77 21.5q69 0 116 -14l121 -451q70 -261 84 -327q33 180 62 311l88 402q10 45 36.5 62t67.5 17q59 0 117 -22l-219 -897 q-24 -92 -156 -92q-85 0 -127 16l-192 725l-177 -645q-16 -57 -56 -76.5t-83 -19.5q-105 0 -145 18z" />
<glyph unicode="x" horiz-adv-x="993" d="M18 12l353 488l-340 467q58 30 120 30t97 -13t59 -48l199 -293l190 295q41 59 125 59q76 0 129 -22l-323 -477l331 -480q-58 -30 -119 -30t-95.5 13t-57.5 48l-194 305l-220 -313q-36 -53 -116 -53h-11q-67 0 -127 24z" />
<glyph unicode="y" horiz-adv-x="974" d="M10 971q60 26 118 26q106 0 126 -67l242 -688l247 690q23 65 115 65q63 0 113 -24l-500 -1280q-33 -88 -129 -88q-62 0 -115 20l166 379z" />
<glyph unicode="z" horiz-adv-x="923" d="M53 78q0 82 47 141l484 588h-439q-79 0 -79 96q0 51 10 86h774q10 -35 10 -75q0 -85 -45 -140l-487 -594h532q10 -31 10 -84q0 -96 -79 -96h-728q-10 35 -10 78z" />
<glyph unicode="{" horiz-adv-x="628" d="M84 410v137q79 15 108 35q58 40 58 104q0 54 -16 124q-31 128 -31 226.5t63.5 181t173.5 140.5q55 -16 80 -47t25 -71t-46 -72q-83 -58 -83 -164q0 -72 15 -158t15 -165t-49 -132t-129 -74q80 -18 130.5 -67.5t50.5 -126.5t-17.5 -163.5t-17.5 -149t18.5 -105.5t64.5 -75 t46 -72q0 -86 -105 -117q-237 122 -237 340q0 73 16 144q33 147 33 183.5t-14.5 60t-37.5 39.5q-32 20 -114 44z" />
<glyph unicode="|" horiz-adv-x="583" d="M217 -379v1667q0 23 14.5 44.5t53.5 21.5t82 -15v-1667q0 -23 -14.5 -44t-53.5 -21t-82 14z" />
<glyph unicode="}" horiz-adv-x="628" d="M84 -284q0 40 46 72q83 58 83 165q0 72 -15.5 158t-15.5 164.5t49.5 132t128.5 73.5q-80 18 -130 67.5t-50 126.5t17.5 164t17.5 149.5t-18.5 105.5t-64.5 74.5t-46 71.5q0 86 104 118q238 -122 238 -340q0 -68 -18 -141q-31 -133 -31 -179.5t14.5 -69t38.5 -38.5 q35 -23 113 -43v-137q-77 -15 -107 -35q-59 -41 -59 -105q0 -53 17 -123q30 -128 30 -226.5t-63.5 -181.5t-174.5 -140q-55 16 -79.5 46.5t-24.5 70.5z" />
<glyph unicode="~" horiz-adv-x="1161" d="M92 346l154 299q52 31 116 31q69 0 127 -60l164 -161l101 204h139l-152 -297q-50 -28 -105.5 -28t-81.5 16.5t-54 44.5l-158 156l-106 -205h-144z" />
<glyph unicode="&#xa1;" horiz-adv-x="555" d="M135 1207q0 54 39 94t93 40t94 -39.5t40 -94t-40 -93.5t-94 -39t-93 39t-39 93zM137 0l49 797q2 25 20.5 44t55.5 19t78 -14l55 -750v-12q0 -41 -30.5 -68.5t-100.5 -27.5t-127 12z" />
<glyph unicode="&#xa2;" d="M188 578q0 192 120.5 335.5t314.5 167.5v185q0 23 11 44t48 21t80 -14v-234q147 -15 252 -71q2 -10 2 -20v-17q0 -57 -24.5 -91t-60.5 -34t-70 16.5t-99 24.5v-629q70 4 108.5 19.5t71.5 15.5q88 0 88 -117v-22q0 -11 -2 -23q-59 -31 -123.5 -43t-142.5 -20v-195 q0 -23 -11.5 -44t-48.5 -21t-79 14v248q-193 24 -315 166q-120 142 -120 338zM412 576q0 -133 61.5 -212t149.5 -98v623q-92 -16 -151.5 -98t-59.5 -215z" />
<glyph unicode="&#xa3;" horiz-adv-x="1032" d="M72 624.5q0 55.5 22.5 76t52.5 20.5h103q-12 51 -30.5 113.5t-18.5 134.5q0 174 108.5 275.5t298 101.5t355.5 -101q0 -66 -28 -112t-66 -46t-61.5 9.5t-49.5 19.5q-77 29 -142 29q-106 0 -149 -54.5t-43 -128t15.5 -132t25.5 -109.5h340q8 -28 8 -86q0 -94 -76 -94h-258 q0 -176 -117 -332h637q9 -36 9 -98q0 -111 -99 -111h-772q-10 25 -10 68t22.5 90t48 101t48 117.5t22.5 141.5v23h-188q-8 28 -8 83.5z" />
<glyph unicode="&#xa4;" d="M154 184l135 135q-57 94 -57.5 208t57.5 202l-135 137l133 133l135 -137q90 59 205 60q115 0 204 -60l136 135l133 -131l-137 -135q61 -90 61 -205t-59 -204l135 -134l-133 -133l-136 133q-90 -57 -203.5 -57t-207.5 57l-135 -135zM401 526q0 -95 66 -160q67 -65 159 -65 q46 0 88 17.5t72 47.5q68 68 68 160q0 91 -68 160q-64 66 -159 66q-94 0 -160 -66t-66 -160z" />
<glyph unicode="&#xa5;" d="M25 1303q58 32 124 32t101 -13t59 -52l320 -514l317 512q23 39 54.5 53t70.5 14q98 0 143 -30l-477 -742h277q8 -28 8 -86q0 -94 -76 -94h-209v-299q0 -96 -116 -96q-73 0 -113 10v385h-285q-8 28 -8 83.5t22.5 76t53.5 20.5h217z" />
<glyph unicode="&#xa6;" horiz-adv-x="581" d="M217 326q0 23 14.5 44t53.5 21t82 -14v-701q0 -23 -14.5 -44t-53.5 -21t-82 14v701zM217 588v700q0 23 14.5 44.5t53.5 21.5t82 -15v-700q0 -23 -14.5 -44.5t-53.5 -21.5t-82 15z" />
<glyph unicode="&#xa7;" d="M193 1064.5q0 65.5 23.5 117t73.5 90.5q105 82 289 82t382 -66l2 -31q0 -124 -89 -124q-25 0 -51 7t-59 14q-104 22 -164 22q-188 0 -188 -101q0 -35 26.5 -65.5t124.5 -55.5l142 -34q170 -43 237.5 -116t67.5 -177q0 -140 -129 -219q72 -43 100.5 -91.5t28.5 -114.5 t-22.5 -120.5t-71.5 -96.5q-105 -89 -324 -89q-193 0 -381 67q-4 24 -4 61t22.5 67t55.5 30t62.5 -7.5t64.5 -16.5q88 -23 164.5 -23t115.5 10t60 26q39 30 39 76.5t-34 70.5t-126 48l-115 31q-259 72 -299 194q-14 43 -14 97q0 142 127 221q-66 35 -101.5 93t-35.5 123.5z M383 643q0 -58 92 -95q46 -19 232 -67q113 27 112 121q0 61 -95 100q-65 28 -228 68q-113 -28 -113 -127z" />
<glyph unicode="&#xa8;" horiz-adv-x="954" d="M182 1261.5q0 51.5 36 87t87 35.5t87 -35.5t36 -86.5t-36 -87t-87 -36t-87 35.5t-36 87zM557 1261.5q0 51.5 36 87t87 35.5t87 -35.5t36 -86.5t-36 -87t-87 -36t-87 35.5t-36 87z" />
<glyph unicode="&#xa9;" horiz-adv-x="1460" d="M53 664q0 301 191 494q192 194 485 194q292 0 482 -194q89 -91 139.5 -218t50.5 -277.5t-50.5 -276.5t-139.5 -217q-190 -194 -482 -194q-147 0 -272 51.5t-214 142.5q-190 194 -190 495zM195 664q0 -244 150 -400q149 -155 384 -155q236 0 383 155q148 156 148 400 q0 238 -151 395q-152 158 -382 158t-382 -158q-150 -156 -150 -395zM369 664q0 163 102 271q107 114 272 114q75 0 136 -17q110 -29 110 -71q0 -47 -22.5 -74t-45 -27t-36 5t-30.5 13q-40 17 -95 17q-92 0 -155.5 -60.5t-63.5 -170.5q0 -111 63.5 -173.5t155.5 -62.5 q57 0 104 17.5t62 17.5q72 0 71 -103q0 -41 -101 -65q-80 -19 -158 -19q-158 0 -263.5 112t-105.5 276z" />
<glyph unicode="&#xaa;" horiz-adv-x="901" d="M84 781q0 116 93 179.5t259 63.5q82 0 176 -16v39q0 78 -35.5 112.5t-121.5 34.5t-142.5 -18.5t-95.5 -18.5q-70 0 -70 105q0 20 3 30q147 49 276 49t192.5 -21.5t101.5 -61.5q71 -76 71 -240v-255q0 -110 32 -214q-51 -19 -102 -19t-71.5 41t-24.5 101 q-100 -146 -277 -146q-122 0 -196 72q-68 67 -68 183zM266 778q0 -49 37 -79.5t107 -30.5q139 0 204 143v86q-91 14 -141 14q-207 0 -207 -133z" />
<glyph unicode="&#xab;" horiz-adv-x="1193" d="M59 397v158l482 326q30 -57 30 -109q0 -97 -73 -141l-246 -150l246 -145q73 -42 73 -135q0 -55 -30 -113zM555 397v158l482 326q30 -57 30 -109q0 -97 -73 -141l-246 -150l246 -145q73 -42 73 -135q0 -55 -30 -113z" />
<glyph unicode="&#xac;" d="M113 529q0 58 23.5 77t60.5 19h807q76 0 97 -30t21 -77v-440q0 -80 -96 -80q-34 0 -90 8v434h-815q-8 31 -8 89z" />
<glyph unicode="&#xad;" horiz-adv-x="727" d="M55 520q0 59 25.5 82t62.5 23h521q8 -64 8 -95q0 -106 -86 -106h-520q-11 88 -11 96z" />
<glyph unicode="&#xae;" horiz-adv-x="768" d="M53 1018q0 136 95 233q98 99 237 99q137 0 235 -99q95 -97 95 -233q0 -143 -95 -237q-97 -95 -236 -95q-71 0 -131 25.5t-105 70.5q-95 97 -95 236zM127 1018q0 -116 79 -190q76 -70 179 -70q102 0 176 70q78 75 78 190q0 111 -78 187q-73 71 -176 71q-104 0 -179 -71 q-79 -75 -79 -187zM262 848v307q0 16 7 26.5t34 10.5h88q59 0 97 -29.5t38 -74.5q0 -89 -86 -109l95 -125q-23 -14 -54 -14t-49 26l-76 103h-14v-92q0 -33 -41 -33q-18 0 -39 4zM342 1034h45q31 0 44 13.5t13 29.5q0 45 -53 45h-49v-88z" />
<glyph unicode="&#xaf;" horiz-adv-x="954" d="M211 1268q0 92 78 92h504q8 -28 8 -82q0 -92 -78 -92h-504q-8 28 -8 82z" />
<glyph unicode="&#xb0;" horiz-adv-x="813" d="M78 1026q0 138 96 232q97 96 234 96q134 0 231 -96q96 -94 96 -232q0 -135 -96 -231q-97 -97 -231 -97q-137 0 -234 97q-96 96 -96 231zM215 1026q0 -76 57 -134q54 -56 135 -56q40 0 74.5 15t60.5 41q56 58 56 134q0 80 -56.5 136.5t-133.5 56.5q-80 0 -136.5 -56.5 t-56.5 -136.5z" />
<glyph unicode="&#xb1;" horiz-adv-x="1148" d="M68 889q0 58 23.5 77t60.5 19h325v346q0 80 96 80q25 0 93 -9v-417h407q8 -31 8 -89t-23.5 -77t-60.5 -19h-331v-362q0 -80 -97 -80q-32 0 -92 8v434h-401q-8 31 -8 89z" />
<glyph unicode="&#xb2;" horiz-adv-x="878" d="M119 526q0 73 57 121l213 178q113 96 140 127q44 52 44 111t-38.5 94t-95 35t-87 -9t-57.5 -21q-68 -32 -98.5 -32t-53 32t-22.5 89q136 103 298 103t245.5 -78t83.5 -191.5t-59.5 -186.5t-172.5 -159l-162 -125h402q6 -42 6 -77q0 -82 -66 -82h-569q-8 40 -8 71z" />
<glyph unicode="&#xb3;" horiz-adv-x="923" d="M137 514q0 53 20.5 87t49 34t49 -6t47.5 -15q65 -20 145.5 -20t126.5 31.5t46 84t-41 87t-142 34.5h-114q-56 0 -56 74q0 38 6 68h158q86 0 127 30.5t41 79.5t-36 80t-117.5 31t-131 -18.5t-86.5 -18.5t-55 37t-18 88q128 70 305 70q146 0 230 -71q77 -65 77 -153 q0 -163 -147 -213q76 -16 127 -71.5t51 -130t-25.5 -123.5t-71.5 -84q-96 -72 -262 -72t-303 80z" />
<glyph unicode="&#xb4;" horiz-adv-x="954" d="M322 1157l327 305q41 -12 62.5 -44t21.5 -68q0 -77 -65 -123l-131 -92q-52 -35 -111.5 -35t-103.5 57z" />
<glyph unicode="&#xb5;" horiz-adv-x="1167" d="M115 -383v1286q0 94 112 94q71 0 111 -10v-549q0 -133 68 -204q61 -66 157 -66q139 0 228 147v588q0 94 112 94q70 0 113 -10v-516q0 -268 35 -463q-48 -18 -91 -18t-64.5 8t-34.5 26q-19 25 -34 119h-2q-92 -166 -254 -166q-158 0 -233 125v-401q0 -94 -115 -94 q-68 0 -108 10z" />
<glyph unicode="&#xb6;" horiz-adv-x="1189" d="M39 893q0 194 131 315q134 123 354 123h404q76 0 97.5 -29.5t21.5 -76.5v-1172q0 -65 -80 -65q-42 0 -78 6v1182h-103v-1123q0 -65 -79 -65q-44 0 -80 6v467h-103q-223 0 -353 121q-132 122 -132 311zM209 893q0 -129 83 -200.5t243 -71.5h92v555h-92q-160 0 -243 -77 t-83 -206z" />
<glyph unicode="&#xb7;" horiz-adv-x="436" d="M84 516.5q0 54.5 38.5 93.5t93 39t94.5 -39t40 -93t-40 -93t-94 -39t-93 38.5t-39 93z" />
<glyph unicode="&#xb8;" horiz-adv-x="954" d="M311 -387q0 41 17.5 68.5t46.5 27.5t57.5 -13t73.5 -13t73.5 20.5t28.5 54.5q0 76 -116 76h-13q-29 0 -45 14.5t-16 32.5t6 35l33 88h123l-27 -70q101 -4 153 -59q44 -47 44 -130t-68 -134t-172.5 -51t-198.5 53z" />
<glyph unicode="&#xb9;" horiz-adv-x="798" d="M131 1151q0 41 51 68l221 112h121v-823q0 -70 -88 -70q-52 0 -78 8v697l-186 -92q-10 14 -25.5 36.5t-15.5 63.5z" />
<glyph unicode="&#xba;" horiz-adv-x="907" d="M59 934q0 170 113 288q115 121 291 121q179 0 291 -119q110 -115 110 -286q0 -169 -110 -288q-112 -124 -290 -124q-91 0 -165 32t-127 87q-113 117 -113 289zM238 934q0 -115 72 -188q65 -64 152 -64q40 0 80 15.5t72 46.5q74 72 74 190q0 117 -68 188q-63 68 -157 68 q-89 0 -155 -68q-70 -71 -70 -188z" />
<glyph unicode="&#xbb;" horiz-adv-x="1193" d="M125 198q0 95 74 140l245 149l-245 146q-74 43 -74 135q0 58 31 113l481 -310v-157l-481 -326q-31 59 -31 110zM621 198q0 95 74 140l245 149l-245 146q-74 43 -74 135q0 58 31 113l481 -310v-157l-481 -326q-31 59 -31 110z" />
<glyph unicode="&#xbc;" horiz-adv-x="1851" d="M59 1151q0 41 52 68l221 112h121v-823q0 -70 -90 -70q-52 0 -76 8v697l-187 -92q-10 14 -25.5 36.5t-15.5 63.5zM479 188l570 945q27 45 69.5 45t61 -10.5t32.5 -20.5l-569 -942q-30 -47 -77.5 -47t-86.5 30zM1016 248q0 67 43 129l371 512h182v-557h141q8 -24 8 -78 q0 -76 -61 -76h-88v-121q0 -69 -84 -69q-60 0 -84 8v182h-418q-10 31 -10 70zM1200 330h244v336z" />
<glyph unicode="&#xbd;" horiz-adv-x="1878" d="M59 1151q0 41 52 68l221 112h121v-823q0 -70 -90 -70q-52 0 -76 8v697l-187 -92q-10 14 -25.5 36.5t-15.5 63.5zM461 188l569 945q27 45 70 45t60.5 -10.5t31.5 -20.5l-567 -942q-26 -47 -75.5 -47t-88.5 30zM1118 74q0 86 64 137l184 145q49 39 89 70t67 58 q57 57 57 117t-38 97t-92 37t-87 -10t-60.5 -21.5t-51 -21.5t-49.5 -10t-51.5 27.5t-25.5 76.5q0 43 113 84q111 39 196 39t142 -21.5t97 -59.5q85 -81 85 -204q0 -151 -166 -273q-49 -36 -106 -77l-142 -104h420q4 -24 4 -78q0 -82 -63 -82h-578q-8 40 -8 74z" />
<glyph unicode="&#xbe;" horiz-adv-x="2076" d="M94 514q0 53 20.5 88t48 35t49 -7t47.5 -16q64 -24 144.5 -24t126 32.5t45.5 85t-39.5 88t-142.5 35.5h-114q-23 0 -38.5 18.5t-15.5 61t4 62.5h158q168 0 168 117q0 43 -35 75.5t-96 32.5t-94 -7t-59.5 -14.5t-46 -14.5t-36.5 -7q-72 0 -77 127q128 70 307 70 q144 0 228 -71q77 -65 77 -153q0 -162 -145 -213q76 -16 126 -72.5t50 -130t-26 -123.5t-72 -84q-96 -71 -246 -71q-86 0 -172 22.5t-144 57.5zM700 188l570 945q29 45 71 45t59 -10.5t32 -20.5l-570 -942q-26 -47 -80 -47h-16t-21 4q-16 5 -45 26zM1235 248q0 67 43 129 l371 512h182v-557h141q8 -24 8 -78q0 -76 -61 -76h-88v-121q0 -69 -84 -69q-60 0 -84 8v182h-418q-10 31 -10 70zM1425 330h240v336z" />
<glyph unicode="&#xbf;" horiz-adv-x="944" d="M49 332q0 190 184 293q55 31 97.5 54t73.5 48q62 51 73 129q4 18 22.5 36.5t57.5 18.5t80 -14q4 -32 4 -85.5t-26.5 -106t-67.5 -90t-88 -66.5t-88 -57q-95 -63 -95 -135.5t54.5 -116t137.5 -43.5t131 11t84 24.5t63.5 24.5t64.5 11t64.5 -41t29.5 -116 q-179 -121 -445 -121q-81 0 -162 25.5t-136 71.5q-113 93 -113 245zM428 1223.5q0 54.5 40 93.5t94 39t93 -39t39 -93t-39 -93t-93 -39t-94 38.5t-40 93z" />
<glyph unicode="&#xc0;" horiz-adv-x="1234" d="M12 12l453 1309q70 18 134 18t96 -7t53 -22q39 -28 63 -98l412 -1198q-65 -26 -113.5 -26t-83.5 11t-51 58l-98 293h-525l-96 -293q-16 -45 -47 -57t-68 -12q-87 0 -129 24zM346 1645q0 39 21.5 70.5t62.5 43.5l328 -305q-45 -57 -104.5 -57t-110.5 35l-131 92 q-70 50 -66 121zM418 547h395l-197 594z" />
<glyph unicode="&#xc1;" horiz-adv-x="1234" d="M12 12l453 1309q70 18 134 18t96 -7t53 -22q39 -28 63 -98l412 -1198q-65 -26 -113.5 -26t-83.5 11t-51 58l-98 293h-525l-96 -293q-16 -45 -47 -57t-68 -12q-87 0 -129 24zM418 547h395l-197 594zM422 1454l327 305q41 -12 62.5 -44t21.5 -68q0 -77 -65 -123l-131 -92 q-52 -35 -111.5 -35t-103.5 57z" />
<glyph unicode="&#xc2;" horiz-adv-x="1234" d="M12 12l453 1309q70 18 134 18t96 -7t53 -22q39 -28 63 -98l412 -1198q-65 -26 -113.5 -26t-83.5 11t-51 58l-98 293h-525l-96 -293q-16 -45 -47 -57t-68 -12q-87 0 -129 24zM301 1407l205 317q62 25 116 25t82.5 -16.5t51.5 -47.5l178 -276q-46 -23 -91 -23 q-85 0 -116 51l-108 185l-117 -193q-28 -43 -102 -43q-49 0 -99 21zM418 547h395l-197 594z" />
<glyph unicode="&#xc3;" horiz-adv-x="1234" d="M12 12l453 1309q70 18 134 18t96 -7t53 -22q39 -28 63 -98l412 -1198q-65 -26 -113.5 -26t-83.5 11t-51 58l-98 293h-525l-96 -293q-16 -45 -47 -57t-68 -12q-87 0 -129 24zM272 1482q25 104 70 164t131 60q64 0 143 -50q29 -18 55.5 -33.5t50.5 -15.5t36 13.5t23 29.5 q28 43 67 43q43 0 78 -39q-35 -109 -76 -166t-112 -57t-151.5 49t-107.5 49t-39 -13t-23.5 -29.5t-25.5 -30t-41 -13.5q-41 0 -78 39zM418 547h395l-197 594z" />
<glyph unicode="&#xc4;" horiz-adv-x="1234" d="M12 12l453 1309q70 18 134 18t96 -7t53 -22q39 -28 63 -98l412 -1198q-65 -26 -113.5 -26t-83.5 11t-51 58l-98 293h-525l-96 -293q-16 -45 -47 -57t-68 -12q-87 0 -129 24zM307 1540.5q0 51.5 36 87t87 35.5t87 -35.5t36 -86.5t-36 -87t-87 -36t-87 35.5t-36 87z M418 547h395l-197 594zM682 1540.5q0 51.5 36 87t87 35.5t87 -35.5t36 -86.5t-36 -87t-87 -36t-87 35.5t-36 87z" />
<glyph unicode="&#xc5;" horiz-adv-x="1234" d="M12 12l453 1309q70 18 134 18t96 -7t53 -22q39 -28 63 -98l412 -1198q-65 -26 -113.5 -26t-83.5 11t-51 58l-98 293h-525l-96 -293q-16 -45 -47 -57t-68 -12q-87 0 -129 24zM397 1608q0 88 65 150q65 61 159 61t155 -61q64 -64 64 -150q0 -90 -66 -152 q-63 -59 -156.5 -59t-157 59.5t-63.5 151.5zM418 547h395l-197 594zM514 1608q0 -47 30.5 -78t72.5 -31t74 31t32 78t-32 77.5t-74 30.5t-72.5 -30.5t-30.5 -77.5z" />
<glyph unicode="&#xc6;" horiz-adv-x="1665" d="M16 14l500 1315l1051 2q8 -32 8 -94.5t-24.5 -88.5t-61.5 -26h-596l90 -348h545q8 -64 8 -92q0 -100 -82 -100h-422l98 -373h451q10 -40 10 -103q0 -106 -86 -106h-442q-56 0 -78 14q-45 27 -59 88l-76 297h-455l-125 -340q-20 -45 -51 -58t-69 -13q-91 0 -134 26z M469 596h332l-133 530z" />
<glyph unicode="&#xc7;" horiz-adv-x="1150" d="M59 659q0 143 49.5 268.5t136.5 217.5q185 196 464 196q176 0 381 -81l2 -39q0 -78 -27 -114t-59.5 -36t-57 8t-56.5 19q-81 26 -172 26t-168 -32.5t-134 -91.5q-121 -128 -121 -341q0 -214 121 -345q114 -121 299 -121q109 0 237 45q25 8 47 8q95 0 95 -160v-29 q-201 -82 -396 -82l-14 -41q101 -4 152 -59q45 -47 45 -130t-68 -134t-172.5 -51t-198.5 53q0 41 17.5 68.5t46.5 27.5t57.5 -13t73.5 -13t73.5 20.5t28.5 54.5q0 76 -116 76h-13q-29 0 -45 14.5t-16 32.5t6 35l27 72q-232 40 -378 225q-147 187 -147 446z" />
<glyph unicode="&#xc8;" horiz-adv-x="1032" d="M125 106v1119q0 47 21.5 76.5t97.5 29.5h688q10 -40 10 -100.5t-25.5 -84.5t-62.5 -24h-500v-356h529q8 -64 8 -108.5t-23.5 -67.5t-58.5 -23h-455v-358h596q8 -64 8 -110.5t-24.5 -72.5t-61.5 -26h-628q-76 0 -97.5 29.5t-21.5 76.5zM330 1645q0 39 21.5 70.5t62.5 43.5 l328 -305q-45 -57 -104.5 -57t-110.5 35l-131 92q-70 50 -66 121z" />
<glyph unicode="&#xc9;" horiz-adv-x="1032" d="M125 106v1119q0 47 21.5 76.5t97.5 29.5h688q10 -40 10 -100.5t-25.5 -84.5t-62.5 -24h-500v-356h529q8 -64 8 -108.5t-23.5 -67.5t-58.5 -23h-455v-358h596q8 -64 8 -110.5t-24.5 -72.5t-61.5 -26h-628q-76 0 -97.5 29.5t-21.5 76.5zM334 1454l327 305q41 -12 62.5 -44 t21.5 -68q0 -77 -65 -123l-131 -92q-52 -35 -111.5 -35t-103.5 57z" />
<glyph unicode="&#xca;" horiz-adv-x="1032" d="M125 106v1119q0 47 21.5 76.5t97.5 29.5h688q10 -40 10 -100.5t-25.5 -84.5t-62.5 -24h-500v-356h529q8 -64 8 -108.5t-23.5 -67.5t-58.5 -23h-455v-358h596q8 -64 8 -110.5t-24.5 -72.5t-61.5 -26h-628q-76 0 -97.5 29.5t-21.5 76.5zM200 1407l205 317q62 25 116 25 t82.5 -16.5t51.5 -47.5l178 -276q-46 -23 -91 -23q-85 0 -116 51l-108 185l-117 -193q-28 -43 -102 -43q-49 0 -99 21z" />
<glyph unicode="&#xcb;" horiz-adv-x="1032" d="M125 106v1119q0 47 21.5 76.5t97.5 29.5h688q10 -40 10 -100.5t-25.5 -84.5t-62.5 -24h-500v-356h529q8 -64 8 -108.5t-23.5 -67.5t-58.5 -23h-455v-358h596q8 -64 8 -110.5t-24.5 -72.5t-61.5 -26h-628q-76 0 -97.5 29.5t-21.5 76.5zM223 1552.5q0 51.5 36 87t87 35.5 t87 -35.5t36 -86.5t-36 -87t-87 -36t-87 35.5t-36 87zM598 1552.5q0 51.5 36 87t87 35.5t87 -35.5t36 -86.5t-36 -87t-87 -36t-87 35.5t-36 87z" />
<glyph unicode="&#xcc;" horiz-adv-x="499" d="M-10 1643q0 39 21.5 70.5t62.5 43.5l328 -305q-45 -57 -104.5 -57t-110.5 35l-131 92q-70 50 -66 121zM135 -2v1241q0 96 117 96q71 0 113 -10v-1241q0 -96 -117 -96q-70 0 -113 10z" />
<glyph unicode="&#xcd;" horiz-adv-x="499" d="M121 1452l327 305q41 -12 62.5 -44t21.5 -68q0 -77 -65 -123l-131 -92q-52 -35 -111.5 -35t-103.5 57zM135 -2v1241q0 96 117 96q71 0 113 -10v-1241q0 -96 -117 -96q-70 0 -113 10z" />
<glyph unicode="&#xce;" horiz-adv-x="499" d="M-62 1407l205 317q62 25 116 25t82.5 -16.5t51.5 -47.5l178 -276q-46 -23 -91 -23q-85 0 -116 51l-108 185l-117 -193q-28 -43 -102 -43q-49 0 -99 21zM135 -2v1241q0 96 117 96q71 0 113 -10v-1241q0 -96 -117 -96q-70 0 -113 10z" />
<glyph unicode="&#xcf;" horiz-adv-x="499" d="M-54 1552.5q0 51.5 36 87t87 35.5t87 -35.5t36 -86.5t-36 -87t-87 -36t-87 35.5t-36 87zM135 -2v1241q0 96 117 96q71 0 113 -10v-1241q0 -96 -117 -96q-70 0 -113 10zM321 1552.5q0 51.5 36 87t87 35.5t87 -35.5t36 -86.5t-36 -87t-87 -36t-87 35.5t-36 87z" />
<glyph unicode="&#xd0;" horiz-adv-x="1298" d="M-39 668q0 98 80 98h84v459q0 47 21.5 76.5t97.5 29.5h282q333 0 524 -178q193 -179 193 -477q0 -292 -193 -478q-203 -198 -530 -198h-276q-76 0 -97.5 29.5t-21.5 76.5v474h-154q-10 35 -10 88zM356 201h181q203 0 333 121q138 130 138 358q0 227 -155 345 q-138 105 -366 105h-131v-364h277q8 -28 8 -75.5t-12.5 -68t-31.5 -29.5q-27 -13 -91 -13h-150v-379z" />
<glyph unicode="&#xd1;" horiz-adv-x="1366" d="M135 -4v1319q46 20 124.5 20t114.5 -21.5t62 -62.5l596 -921l-12 915q0 37 23.5 63.5t86.5 26.5t103 -10v-1319q-47 -18 -116 -18t-103.5 21.5t-57.5 56.5l-616 960l12 -948q0 -90 -110 -90q-73 0 -107 8zM379 1497q25 104 70 164t131 60q64 0 143 -50q29 -18 55.5 -33.5 t50.5 -15.5t36 13.5t23 29.5q28 43 67 43q43 0 78 -39q-35 -109 -76 -166t-112 -57t-151.5 49t-107.5 49t-39 -13t-23.5 -29.5t-25.5 -30t-41 -13.5q-41 0 -78 39z" />
<glyph unicode="&#xd2;" horiz-adv-x="1421" d="M55 670q0 143 48.5 269t134.5 218q186 199 473 199q145 0 266 -53.5t207 -145.5q182 -195 182 -487t-182 -493q-86 -95 -207 -149.5t-266 -54.5t-266 54.5t-207 149.5q-183 202 -183 493zM295 670q0 -214 119 -352q121 -140 295 -140q170 0 295 142q122 139 122 348 q0 208 -120 344q-121 139 -295 139q-175 0 -295 -137q-121 -138 -121 -344zM481 1645q0 39 21.5 70.5t62.5 43.5l328 -305q-45 -57 -104.5 -57t-110.5 35l-131 92q-70 50 -66 121z" />
<glyph unicode="&#xd3;" horiz-adv-x="1421" d="M55 670q0 143 48.5 269t134.5 218q186 199 473 199q145 0 266 -53.5t207 -145.5q182 -195 182 -487t-182 -493q-86 -95 -207 -149.5t-266 -54.5t-266 54.5t-207 149.5q-183 202 -183 493zM295 670q0 -214 119 -352q121 -140 295 -140q170 0 295 142q122 139 122 348 q0 208 -120 344q-121 139 -295 139q-175 0 -295 -137q-121 -138 -121 -344zM463 1454l327 305q41 -12 62.5 -44t21.5 -68q0 -77 -65 -123l-131 -92q-52 -35 -111.5 -35t-103.5 57z" />
<glyph unicode="&#xd4;" horiz-adv-x="1421" d="M55 670q0 143 48.5 269t134.5 218q186 199 473 199q145 0 266 -53.5t207 -145.5q182 -195 182 -487t-182 -493q-86 -95 -207 -149.5t-266 -54.5t-266 54.5t-207 149.5q-183 202 -183 493zM295 670q0 -214 119 -352q121 -140 295 -140q170 0 295 142q122 139 122 348 q0 208 -120 344q-121 139 -295 139q-175 0 -295 -137q-121 -138 -121 -344zM393 1407l205 317q62 25 116 25t82.5 -16.5t51.5 -47.5l178 -276q-46 -23 -91 -23q-85 0 -116 51l-108 185l-117 -193q-28 -43 -102 -43q-49 0 -99 21z" />
<glyph unicode="&#xd5;" horiz-adv-x="1421" d="M55 670q0 143 48.5 269t134.5 218q186 199 473 199q145 0 266 -53.5t207 -145.5q182 -195 182 -487t-182 -493q-86 -95 -207 -149.5t-266 -54.5t-266 54.5t-207 149.5q-183 202 -183 493zM295 670q0 -214 119 -352q121 -140 295 -140q170 0 295 142q122 139 122 348 q0 208 -120 344q-121 139 -295 139q-175 0 -295 -137q-121 -138 -121 -344zM389 1491q25 104 70 164t131 60q64 0 143 -50q29 -18 55.5 -33.5t50.5 -15.5t36 13.5t23 29.5q28 43 67 43q43 0 78 -39q-35 -109 -76 -166t-112 -57t-151.5 49t-107.5 49t-39 -13t-23.5 -29.5 t-25.5 -30t-41 -13.5q-41 0 -78 39z" />
<glyph unicode="&#xd6;" horiz-adv-x="1421" d="M55 670q0 143 48.5 269t134.5 218q186 199 473 199q145 0 266 -53.5t207 -145.5q182 -195 182 -487t-182 -493q-86 -95 -207 -149.5t-266 -54.5t-266 54.5t-207 149.5q-183 202 -183 493zM295 670q0 -214 119 -352q121 -140 295 -140q170 0 295 142q122 139 122 348 q0 208 -120 344q-121 139 -295 139q-175 0 -295 -137q-121 -138 -121 -344zM399 1552.5q0 51.5 36 87t87 35.5t87 -35.5t36 -86.5t-36 -87t-87 -36t-87 35.5t-36 87zM774 1552.5q0 51.5 36 87t87 35.5t87 -35.5t36 -86.5t-36 -87t-87 -36t-87 35.5t-36 87z" />
<glyph unicode="&#xd7;" d="M168 180l321 320l-280 280q-27 27 -27 51.5t11.5 43t28.5 35.5q26 23 69 55l332 -332l280 278q27 27 50 27t42 -11.5t35 -28.5q36 -37 45 -75l-321 -319l278 -279q27 -27 27 -50t-12.5 -41.5t-30.5 -35.5q-38 -39 -68 -55l-327 328l-281 -279q-74 -74 -154 50 q-12 20 -18 38z" />
<glyph unicode="&#xd8;" horiz-adv-x="1435" d="M61 670q0 290 184 485q188 199 472 199q183 0 334 -90l49 69q16 23 38.5 40.5t79 17.5t99.5 -21l-143 -201q198 -194 198 -499q0 -295 -183 -491q-189 -202 -489 -202q-161 0 -313 91l-57 -72q-40 -51 -105 -51q-56 0 -106 18l143 197q-201 201 -201 510zM301 670 q0 -186 102 -316l517 733q-96 62 -192.5 62t-172.5 -36t-132 -101q-122 -140 -122 -342zM516 242q88 -62 185.5 -62t173 37t133.5 101q127 140 127 350q0 184 -107 305z" />
<glyph unicode="&#xd9;" horiz-adv-x="1325" d="M111 551v688q0 41 25.5 68.5t94.5 27.5t109 -10v-780q0 -166 83 -265.5t233 -99.5t237.5 99.5t87.5 265.5v694q0 96 117 96q70 0 110 -10v-774q0 -248 -143 -409q-150 -169 -408 -169q-255 0 -405 169q-141 159 -141 409zM473 1645q0 39 21.5 70.5t62.5 43.5l328 -305 q-45 -57 -104.5 -57t-110.5 35l-131 92q-70 50 -66 121z" />
<glyph unicode="&#xda;" horiz-adv-x="1325" d="M111 551v688q0 41 25.5 68.5t94.5 27.5t109 -10v-780q0 -166 83 -265.5t233 -99.5t237.5 99.5t87.5 265.5v694q0 96 117 96q70 0 110 -10v-774q0 -248 -143 -409q-150 -169 -408 -169q-255 0 -405 169q-141 159 -141 409zM469 1454l327 305q41 -12 62.5 -44t21.5 -68 q0 -77 -65 -123l-131 -92q-52 -35 -111.5 -35t-103.5 57z" />
<glyph unicode="&#xdb;" horiz-adv-x="1325" d="M111 551v688q0 41 25.5 68.5t94.5 27.5t109 -10v-780q0 -166 83 -265.5t233 -99.5t237.5 99.5t87.5 265.5v694q0 96 117 96q70 0 110 -10v-774q0 -248 -143 -409q-150 -169 -408 -169q-255 0 -405 169q-141 159 -141 409zM354 1407l205 317q62 25 116 25t82.5 -16.5 t51.5 -47.5l178 -276q-46 -23 -91 -23q-85 0 -116 51l-108 185l-117 -193q-28 -43 -102 -43q-49 0 -99 21z" />
<glyph unicode="&#xdc;" horiz-adv-x="1325" d="M111 551v688q0 41 25.5 68.5t94.5 27.5t109 -10v-780q0 -166 83 -265.5t233 -99.5t237.5 99.5t87.5 265.5v694q0 96 117 96q70 0 110 -10v-774q0 -248 -143 -409q-150 -169 -408 -169q-255 0 -405 169q-141 159 -141 409zM358 1552.5q0 51.5 36 87t87 35.5t87 -35.5 t36 -86.5t-36 -87t-87 -36t-87 35.5t-36 87zM733 1552.5q0 51.5 36 87t87 35.5t87 -35.5t36 -86.5t-36 -87t-87 -36t-87 35.5t-36 87z" />
<glyph unicode="&#xdd;" horiz-adv-x="1181" d="M-2 1303q58 32 124 32t102 -13t61 -52l319 -514l318 512q23 39 53.5 53t69.5 14q94 0 141 -30l-475 -740v-481q0 -96 -117 -96q-70 0 -113 10v565zM451 1454l327 305q41 -12 62.5 -44t21.5 -68q0 -77 -65 -123l-131 -92q-52 -35 -111.5 -35t-103.5 57z" />
<glyph unicode="&#xde;" horiz-adv-x="1124" d="M135 -2v1241q0 96 117 96q71 0 113 -10v-188h190q254 0 399 -133q131 -122 131 -320q0 -202 -139 -328q-142 -129 -371 -129h-210v-143q0 -96 -117 -96q-70 0 -113 10zM365 428h174q160 0 234.5 68.5t74.5 186.5t-75 184.5t-216 66.5h-192v-506z" />
<glyph unicode="&#xdf;" horiz-adv-x="1273" d="M117 -2v1038q0 194 129 295q119 92 313 92q229 0 357 -115q118 -106 118 -288q0 -112 -33 -168q-106 -2 -154 -35t-48 -80t31.5 -78.5t77.5 -57.5t101.5 -49.5t101.5 -57.5q110 -83 110 -207q0 -129 -101 -212q-108 -89 -313 -89q-185 0 -336 61q-4 28 -4 51 q0 115 84 115q26 0 81 -15q106 -30 179 -30q184 0 184 111q0 39 -30.5 66.5t-77.5 52t-101.5 50t-101.5 61.5q-109 83 -109 200.5t69 189.5t185 94q5 13 5 45q0 86 -68 143.5t-194 57.5t-179 -59.5t-53 -175.5v-922q0 -94 -113 -94q-70 0 -110 10z" />
<glyph unicode="&#xe0;" horiz-adv-x="1056" d="M59 283q0 236 239 309q81 24 190.5 24t244.5 -24v51q0 100 -45 142t-162 42q-93 0 -157 -16t-91.5 -23.5t-61.5 -7.5t-54.5 37t-20.5 69v40q0 10 2 20q183 62 392 62q331 0 391 -233q20 -75 20 -173v-215q0 -187 14.5 -258.5t28.5 -120.5q-45 -20 -98 -20t-79 15t-40 41 q-19 36 -27 134h-2q-124 -194 -352 -194q-157 0 -247 88q-85 83 -85 211zM281 299q0 -66 47 -100.5t134 -34.5t159.5 57.5t113.5 143.5v86q-104 18 -186 18q-268 0 -268 -170zM311 1348q0 39 21.5 70.5t62.5 43.5l328 -305q-45 -57 -104.5 -57t-110.5 35l-131 92 q-70 50 -66 121z" />
<glyph unicode="&#xe1;" horiz-adv-x="1056" d="M59 283q0 236 239 309q81 24 190.5 24t244.5 -24v51q0 100 -45 142t-162 42q-93 0 -157 -16t-91.5 -23.5t-61.5 -7.5t-54.5 37t-20.5 69v40q0 10 2 20q183 62 392 62q331 0 391 -233q20 -75 20 -173v-215q0 -187 14.5 -258.5t28.5 -120.5q-45 -20 -98 -20t-79 15t-40 41 q-19 36 -27 134h-2q-124 -194 -352 -194q-157 0 -247 88q-85 83 -85 211zM281 299q0 -66 47 -100.5t134 -34.5t159.5 57.5t113.5 143.5v86q-104 18 -186 18q-268 0 -268 -170zM328 1157l327 305q41 -12 62.5 -44t21.5 -68q0 -77 -65 -123l-131 -92q-52 -35 -111.5 -35 t-103.5 57z" />
<glyph unicode="&#xe2;" horiz-adv-x="1056" d="M59 283q0 236 239 309q81 24 190.5 24t244.5 -24v51q0 100 -45 142t-162 42q-93 0 -157 -16t-91.5 -23.5t-61.5 -7.5t-54.5 37t-20.5 69v40q0 10 2 20q183 62 392 62q331 0 391 -233q20 -75 20 -173v-215q0 -187 14.5 -258.5t28.5 -120.5q-45 -20 -98 -20t-79 15t-40 41 q-19 36 -27 134h-2q-124 -194 -352 -194q-157 0 -247 88q-85 83 -85 211zM209 1098l205 317q62 25 116 25t82.5 -16.5t51.5 -47.5l178 -276q-46 -23 -91 -23q-85 0 -116 51l-108 185l-117 -193q-28 -43 -102 -43q-49 0 -99 21zM281 299q0 -66 47 -100.5t134 -34.5 t159.5 57.5t113.5 143.5v86q-104 18 -186 18q-268 0 -268 -170z" />
<glyph unicode="&#xe3;" horiz-adv-x="1056" d="M59 283q0 236 239 309q81 24 190.5 24t244.5 -24v51q0 100 -45 142t-162 42q-93 0 -157 -16t-91.5 -23.5t-61.5 -7.5t-54.5 37t-20.5 69v40q0 10 2 20q183 62 392 62q331 0 391 -233q20 -75 20 -173v-215q0 -187 14.5 -258.5t28.5 -120.5q-45 -20 -98 -20t-79 15t-40 41 q-19 36 -27 134h-2q-124 -194 -352 -194q-157 0 -247 88q-85 83 -85 211zM180 1206q25 104 70 164t131 60q64 0 143 -50q29 -18 55.5 -33.5t50.5 -15.5t36 13.5t23 29.5q28 43 67 43q43 0 78 -39q-35 -109 -76 -166t-112 -57t-151.5 49t-107.5 49t-39 -13t-23.5 -29.5 t-25.5 -30t-41 -13.5q-41 0 -78 39zM281 299q0 -66 47 -100.5t134 -34.5t159.5 57.5t113.5 143.5v86q-104 18 -186 18q-268 0 -268 -170z" />
<glyph unicode="&#xe4;" horiz-adv-x="1056" d="M59 283q0 236 239 309q81 24 190.5 24t244.5 -24v51q0 100 -45 142t-162 42q-93 0 -157 -16t-91.5 -23.5t-61.5 -7.5t-54.5 37t-20.5 69v40q0 10 2 20q183 62 392 62q331 0 391 -233q20 -75 20 -173v-215q0 -187 14.5 -258.5t28.5 -120.5q-45 -20 -98 -20t-79 15t-40 41 q-19 36 -27 134h-2q-124 -194 -352 -194q-157 0 -247 88q-85 83 -85 211zM215 1261.5q0 51.5 36 87t87 35.5t87 -35.5t36 -86.5t-36 -87t-87 -36t-87 35.5t-36 87zM281 299q0 -66 47 -100.5t134 -34.5t159.5 57.5t113.5 143.5v86q-104 18 -186 18q-268 0 -268 -170z M590 1261.5q0 51.5 36 87t87 35.5t87 -35.5t36 -86.5t-36 -87t-87 -36t-87 35.5t-36 87z" />
<glyph unicode="&#xe5;" horiz-adv-x="1052" d="M59 283q0 236 239 309q81 24 190.5 24t244.5 -24v51q0 100 -45 142t-162 42q-93 0 -157 -16t-91.5 -23.5t-61.5 -7.5t-54.5 37t-20.5 69v40q0 10 2 20q183 62 392 62q331 0 391 -233q20 -75 20 -173v-215q0 -187 14.5 -258.5t28.5 -120.5q-45 -20 -98 -20t-79 15t-40 41 q-19 36 -27 134h-2q-124 -194 -352 -194q-157 0 -247 88q-85 83 -85 211zM281 299q0 -66 47 -100.5t134 -34.5t159.5 57.5t113.5 143.5v86q-104 18 -186 18q-268 0 -268 -170zM307 1298q0 87 65 150q62 61 158 61q93 0 154 -61q64 -64 64 -153t-65 -148.5t-157 -59.5 t-155.5 59.5t-63.5 151.5zM422 1298q0 -47 31.5 -77.5t73.5 -30.5t74 30.5t32 77.5t-32 78t-74 31t-73.5 -30.5t-31.5 -78.5z" />
<glyph unicode="&#xe6;" horiz-adv-x="1724" d="M59 268q0 322 482 322q58 0 186 -10l2 34q0 213 -223 213q-99 0 -232 -37q-26 -8 -60 -8t-54.5 38t-20.5 70v38q0 8 2 18q164 62 351 62q283 0 364 -187q121 187 348 187q216 0 346 -153q117 -139 117 -337q0 -53 -10 -104h-721q16 -123 99 -183.5t212 -60.5q89 0 147 18 q108 35 139.5 35t57 -32.5t25.5 -88.5q0 -19 -4 -45q-59 -29 -160.5 -54.5t-233.5 -25.5t-235.5 54.5t-159.5 136.5q-74 -86 -170 -137t-211.5 -51t-183.5 24.5t-112 65.5q-87 81 -87 198zM281 285q0 -53 42.5 -93t123.5 -40t164 38.5t137 120.5q-21 53 -21 123 q-70 4 -143.5 4t-135 -9t-98.5 -29q-69 -36 -69 -115zM938 573h520q-8 111 -74.5 186t-183.5 75t-184.5 -74t-77.5 -187z" />
<glyph unicode="&#xe7;" horiz-adv-x="933" d="M55 492q0 213 137 360q140 149 363 149q182 0 326 -79q2 -10 2 -20v-17q0 -57 -24.5 -91t-53 -34t-48.5 7t-43 17q-64 25 -130.5 25t-120 -20.5t-93.5 -61.5q-85 -87 -85 -235q0 -150 85 -235q83 -83 208 -83q77 0 124.5 18.5t68 26.5t38.5 8q88 0 88 -118v-21 q0 -12 -2 -22q-151 -82 -344 -82l-19 -50q102 -4 154 -59q43 -46 43 -129.5t-68 -134.5t-172 -51t-198 53q0 41 17.5 68.5t45.5 27.5q29 0 57.5 -13t73.5 -13t74 20.5t29 54.5q0 76 -117 76h-12q-29 0 -45.5 14.5t-16.5 32.5t6 35l31 82q-173 35 -276 174t-103 320z" />
<glyph unicode="&#xe8;" horiz-adv-x="1060" d="M55 496q0 218 139 366q137 146 343 146q220 0 349 -154q118 -142 118 -338q0 -51 -11 -102h-710q14 -119 93 -181.5t208 -62.5q92 0 147 20q100 35 136 35t59.5 -32.5t23.5 -65.5q0 -44 -4 -70q-168 -80 -366 -80q-243 0 -386 148q-139 145 -139 371zM281 573h514 q-10 111 -75 186t-180.5 75t-182 -72t-76.5 -189zM330 1348q0 39 21.5 70.5t62.5 43.5l328 -305q-45 -57 -104.5 -57t-110.5 35l-131 92q-70 50 -66 121z" />
<glyph unicode="&#xe9;" horiz-adv-x="1060" d="M55 496q0 218 139 366q137 146 343 146q220 0 349 -154q118 -142 118 -338q0 -51 -11 -102h-710q14 -119 93 -181.5t208 -62.5q92 0 147 20q100 35 136 35t59.5 -32.5t23.5 -65.5q0 -44 -4 -70q-168 -80 -366 -80q-243 0 -386 148q-139 145 -139 371zM281 573h514 q-10 111 -75 186t-180.5 75t-182 -72t-76.5 -189zM342 1157l327 305q41 -12 62.5 -44t21.5 -68q0 -77 -65 -123l-131 -92q-52 -35 -111.5 -35t-103.5 57z" />
<glyph unicode="&#xea;" horiz-adv-x="1060" d="M55 496q0 218 139 366q137 146 343 146q220 0 349 -154q118 -142 118 -338q0 -51 -11 -102h-710q14 -119 93 -181.5t208 -62.5q92 0 147 20q100 35 136 35t59.5 -32.5t23.5 -65.5q0 -44 -4 -70q-168 -80 -366 -80q-243 0 -386 148q-139 145 -139 371zM211 1098l205 317 q62 25 116 25t82.5 -16.5t51.5 -47.5l178 -276q-46 -23 -91 -23q-85 0 -116 51l-108 185l-117 -193q-28 -43 -102 -43q-49 0 -99 21zM281 573h514q-10 111 -75 186t-180.5 75t-182 -72t-76.5 -189z" />
<glyph unicode="&#xeb;" horiz-adv-x="1060" d="M55 496q0 218 139 366q137 146 343 146q220 0 349 -154q118 -142 118 -338q0 -51 -11 -102h-710q14 -119 93 -181.5t208 -62.5q92 0 147 20q100 35 136 35t59.5 -32.5t23.5 -65.5q0 -44 -4 -70q-168 -80 -366 -80q-243 0 -386 148q-139 145 -139 371zM217 1261.5 q0 51.5 36 87t87 35.5t87 -35.5t36 -86.5t-36 -87t-87 -36t-87 35.5t-36 87zM281 573h514q-10 111 -75 186t-180.5 75t-182 -72t-76.5 -189zM592 1261.5q0 51.5 36 87t87 35.5t87 -35.5t36 -86.5t-36 -87t-87 -36t-87 35.5t-36 87z" />
<glyph unicode="&#xec;" horiz-adv-x="460" d="M-13 1348q0 39 21.5 70.5t62.5 43.5l328 -305q-45 -57 -104.5 -57t-110.5 35l-131 92q-70 50 -66 121zM117 -2v905q0 94 112 94q71 0 111 -10v-905q0 -94 -115 -94q-68 0 -108 10z" />
<glyph unicode="&#xed;" horiz-adv-x="460" d="M97 1157l327 305q41 -12 62.5 -44t21.5 -68q0 -77 -65 -123l-131 -92q-52 -35 -111.5 -35t-103.5 57zM117 -2v905q0 94 112 94q71 0 111 -10v-905q0 -94 -115 -94q-68 0 -108 10z" />
<glyph unicode="&#xee;" horiz-adv-x="460" d="M-58 1098l205 317q62 25 116 25t82.5 -16.5t51.5 -47.5l178 -276q-46 -23 -91 -23q-85 0 -116 51l-108 185l-117 -193q-28 -43 -102 -43q-49 0 -99 21zM117 -2v905q0 94 112 94q71 0 111 -10v-905q0 -94 -115 -94q-68 0 -108 10z" />
<glyph unicode="&#xef;" horiz-adv-x="460" d="M-60 1261.5q0 51.5 36 87t87 35.5t87 -35.5t36 -86.5t-36 -87t-87 -36t-87 35.5t-36 87zM117 -2v905q0 94 112 94q71 0 111 -10v-905q0 -94 -115 -94q-68 0 -108 10zM315 1261.5q0 51.5 36 87t87 35.5t87 -35.5t36 -86.5t-36 -87t-87 -36t-87 35.5t-36 87z" />
<glyph unicode="&#xf0;" horiz-adv-x="1122" d="M55 465q0 204 135 335q136 132 326 132q98 0 166 -27.5t139 -83.5q-37 174 -190 283l-207 -113q-20 -10 -41 -10t-41 34t-25 58l191 103q-23 10 -50.5 18t-51.5 20q-60 31 -60 78t45 105q162 -39 297 -121l158 86q20 8 39 8t40 -28.5t25 -63.5l-151 -82 q268 -231 268 -623q0 -264 -139 -427q-144 -166 -373 -166q-228 0 -365 142q-135 138 -135 343zM283 469q0 -141 83 -227q74 -78 200 -78q65 0 120 30.5t90 83.5q68 102 68 254q0 45 -6 89q-119 137 -275 137q-116 0 -194 -70q-86 -77 -86 -219z" />
<glyph unicode="&#xf1;" horiz-adv-x="1116" d="M117 -2v983q61 16 98 16q119 0 119 -125l2 -28q51 72 134 118t187 46q166 0 262.5 -108.5t96.5 -311.5v-506q0 -94 -113 -94q-70 0 -110 10v565q0 254 -220 254q-66 0 -132 -37t-101 -98v-600q0 -94 -113 -94q-70 0 -110 10zM217 1206q25 104 70 164t131 60q64 0 143 -50 q29 -18 55.5 -33.5t50.5 -15.5t36 13.5t23 29.5q28 43 67 43q43 0 78 -39q-35 -109 -76 -166t-112 -57t-151.5 49t-107.5 49t-39 -13t-23.5 -29.5t-25.5 -30t-41 -13.5q-41 0 -78 39z" />
<glyph unicode="&#xf2;" horiz-adv-x="1130" d="M55 494q0 211 143 360q147 152 369 152q223 0 367 -152q141 -148 141 -360q0 -219 -138 -363q-145 -151 -370 -151q-226 0 -371 148q-141 145 -141 366zM283 494q0 -154 89 -247q79 -83 194 -83q52 0 102.5 20.5t90.5 61.5q89 91 89 248q0 148 -83 240q-79 87 -198 87 q-114 0 -197 -87q-87 -91 -87 -240zM391 1348q0 39 21.5 70.5t62.5 43.5l328 -305q-45 -57 -104.5 -57t-110.5 35l-131 92q-70 50 -66 121z" />
<glyph unicode="&#xf3;" horiz-adv-x="1130" d="M55 494q0 211 143 360q147 152 369 152q223 0 367 -152q141 -148 141 -360q0 -219 -138 -363q-145 -151 -370 -151q-226 0 -371 148q-141 145 -141 366zM283 494q0 -154 89 -247q79 -83 194 -83q52 0 102.5 20.5t90.5 61.5q89 91 89 248q0 148 -83 240q-79 87 -198 87 q-114 0 -197 -87q-87 -91 -87 -240zM320 1157l327 305q41 -12 62.5 -44t21.5 -68q0 -77 -65 -123l-131 -92q-52 -35 -111.5 -35t-103.5 57z" />
<glyph unicode="&#xf4;" horiz-adv-x="1130" d="M55 494q0 211 143 360q147 152 369 152q223 0 367 -152q141 -148 141 -360q0 -219 -138 -363q-145 -151 -370 -151q-226 0 -371 148q-141 145 -141 366zM243 1098l205 317q62 25 116 25t82.5 -16.5t51.5 -47.5l178 -276q-46 -23 -91 -23q-85 0 -116 51l-108 185 l-117 -193q-28 -43 -102 -43q-49 0 -99 21zM283 494q0 -154 89 -247q79 -83 194 -83q52 0 102.5 20.5t90.5 61.5q89 91 89 248q0 148 -83 240q-79 87 -198 87q-114 0 -197 -87q-87 -91 -87 -240z" />
<glyph unicode="&#xf5;" horiz-adv-x="1130" d="M55 494q0 211 143 360q147 152 369 152q223 0 367 -152q141 -148 141 -360q0 -219 -138 -363q-145 -151 -370 -151q-226 0 -371 148q-141 145 -141 366zM213 1183q25 104 70 164t131 60q64 0 143 -50q29 -18 55.5 -33.5t50.5 -15.5t36 13.5t23 29.5q28 43 67 43 q43 0 78 -39q-35 -109 -76 -166t-112 -57t-151.5 49t-107.5 49t-39 -13t-23.5 -29.5t-25.5 -30t-41 -13.5q-41 0 -78 39zM283 494q0 -154 89 -247q79 -83 194 -83q52 0 102.5 20.5t90.5 61.5q89 91 89 248q0 148 -83 240q-79 87 -198 87q-114 0 -197 -87q-87 -91 -87 -240z " />
<glyph unicode="&#xf6;" horiz-adv-x="1130" d="M55 494q0 211 143 360q147 152 369 152q223 0 367 -152q141 -148 141 -360q0 -219 -138 -363q-145 -151 -370 -151q-226 0 -371 148q-141 145 -141 366zM250 1261.5q0 51.5 36 87t87 35.5t87 -35.5t36 -86.5t-36 -87t-87 -36t-87 35.5t-36 87zM283 494q0 -154 89 -247 q79 -83 194 -83q52 0 102.5 20.5t90.5 61.5q89 91 89 248q0 148 -83 240q-79 87 -198 87q-114 0 -197 -87q-87 -91 -87 -240zM625 1261.5q0 51.5 36 87t87 35.5t87 -35.5t36 -86.5t-36 -87t-87 -36t-87 35.5t-36 87z" />
<glyph unicode="&#xf7;" d="M113 529q0 58 23.5 77t60.5 19h921q8 -31 8 -89t-23.5 -77t-60.5 -19h-921q-8 31 -8 89zM502 907q0 51 36.5 88t89 37t88.5 -37t36 -88t-36 -88t-88 -37t-89 37t-37 88zM504 164q0 51 37 88t88 37t88 -37t37 -88t-37 -88t-88 -37t-88 37t-37 88z" />
<glyph unicode="&#xf8;" horiz-adv-x="1142" d="M66 494q0 214 140 360q147 152 367 152q130 0 236 -56l41 58q20 29 42.5 44t55.5 15q54 0 90 -16l-123 -172q162 -150 162 -385q0 -218 -137 -363q-142 -151 -367 -151q-137 0 -243 57l-41 -55q-23 -31 -43.5 -42.5t-49.5 -11.5q-42 0 -90 15l117 168q-157 149 -157 383z M281 494q0 -122 63 -207l356 504q-66 32 -124 32t-110 -22.5t-94 -65.5q-91 -93 -91 -241zM440 201q61 -37 122.5 -37t114 21.5t93.5 62.5q92 92 92 246q0 131 -67 206z" />
<glyph unicode="&#xf9;" horiz-adv-x="1122" d="M100 399v504q0 94 113 94q69 0 111 -10v-569q0 -129 60 -188.5t142 -59.5q162 0 250 145v588q0 94 113 94q72 0 112 -10v-600q0 -215 33 -377q-49 -23 -108 -22.5t-84 19t-35 44t-11 56t-5 55.5h-3q-119 -180 -327 -180q-248 0 -332 230q-29 79 -29 187zM385 1342 q0 39 21.5 70.5t62.5 43.5l328 -305q-45 -57 -104.5 -57t-110.5 35l-131 92q-70 50 -66 121z" />
<glyph unicode="&#xfa;" horiz-adv-x="1122" d="M100 399v504q0 94 113 94q69 0 111 -10v-569q0 -129 60 -188.5t142 -59.5q162 0 250 145v588q0 94 113 94q72 0 112 -10v-600q0 -215 33 -377q-49 -23 -108 -22.5t-84 19t-35 44t-11 56t-5 55.5h-3q-119 -180 -327 -180q-248 0 -332 230q-29 79 -29 187zM375 1157 l327 305q41 -12 62.5 -44t21.5 -68q0 -77 -65 -123l-131 -92q-52 -35 -111.5 -35t-103.5 57z" />
<glyph unicode="&#xfb;" horiz-adv-x="1122" d="M100 399v504q0 94 113 94q69 0 111 -10v-569q0 -129 60 -188.5t142 -59.5q162 0 250 145v588q0 94 113 94q72 0 112 -10v-600q0 -215 33 -377q-49 -23 -108 -22.5t-84 19t-35 44t-11 56t-5 55.5h-3q-119 -180 -327 -180q-248 0 -332 230q-29 79 -29 187zM237 1098 l205 317q62 25 116 25t82.5 -16.5t51.5 -47.5l178 -276q-46 -23 -91 -23q-85 0 -116 51l-108 185l-117 -193q-28 -43 -102 -43q-49 0 -99 21z" />
<glyph unicode="&#xfc;" horiz-adv-x="1122" d="M100 399v504q0 94 113 94q69 0 111 -10v-569q0 -129 60 -188.5t142 -59.5q162 0 250 145v588q0 94 113 94q72 0 112 -10v-600q0 -215 33 -377q-49 -23 -108 -22.5t-84 19t-35 44t-11 56t-5 55.5h-3q-119 -180 -327 -180q-248 0 -332 230q-29 79 -29 187zM243 1261.5 q0 51.5 36 87t87 35.5t87 -35.5t36 -86.5t-36 -87t-87 -36t-87 35.5t-36 87zM618 1261.5q0 51.5 36 87t87 35.5t87 -35.5t36 -86.5t-36 -87t-87 -36t-87 35.5t-36 87z" />
<glyph unicode="&#xfd;" horiz-adv-x="974" d="M10 971q60 26 118 26q106 0 126 -67l242 -688l247 690q23 65 115 65q63 0 113 -24l-500 -1280q-33 -88 -129 -88q-62 0 -115 20l166 379zM332 1157l327 305q41 -12 62.5 -44t21.5 -68q0 -77 -65 -123l-131 -92q-52 -35 -111.5 -35t-103.5 57z" />
<glyph unicode="&#xfe;" horiz-adv-x="1157" d="M117 -385v1683q0 95 112 95q67 0 111 -11v-514q45 53 124 96.5t177 43.5t177 -32t142 -96q142 -141 142 -376q0 -220 -125 -370t-322 -150q-106 0 -188 43t-127 114v-442q0 -94 -113 -94q-70 0 -110 10zM340 420q0 -106 72 -176t185.5 -70t194 83t80.5 236.5t-78.5 239.5 t-203.5 86q-86 0 -150.5 -39t-99.5 -104v-256z" />
<glyph unicode="&#xff;" horiz-adv-x="974" d="M10 971q60 26 118 26q106 0 126 -67l242 -688l247 690q23 65 115 65q63 0 113 -24l-500 -1280q-33 -88 -129 -88q-62 0 -115 20l166 379zM182 1261.5q0 51.5 36 87t87 35.5t87 -35.5t36 -86.5t-36 -87t-87 -36t-87 35.5t-36 87zM557 1261.5q0 51.5 36 87t87 35.5 t87 -35.5t36 -86.5t-36 -87t-87 -36t-87 35.5t-36 87z" />
<glyph unicode="&#x152;" horiz-adv-x="1800" d="M55 670q0 290 184 485q186 197 472 197q81 0 139 -8q103 -13 162 -13h708q9 -36 9 -99q0 -110 -87 -110h-499v-356h526q8 -32 8 -92q0 -107 -82 -107h-452v-358h594q8 -32 8 -95q0 -114 -86 -114h-645q-59 0 -137 -10t-194.5 -10t-236.5 53t-207 147q-184 199 -184 490z M295 670q0 -216 121 -352t303 -136q101 0 194 33v903q-99 29 -191.5 29t-170.5 -36t-135 -99q-121 -137 -121 -342z" />
<glyph unicode="&#x153;" horiz-adv-x="1847" d="M55 494q0 213 141 360q147 152 367 152q252 0 387 -197q142 199 379 199q216 0 345 -153q59 -69 88.5 -157t29.5 -164t-8 -120h-721q12 -122 101 -186q82 -60 206 -60q84 0 145.5 19.5t87 28.5t56.5 9t55.5 -33.5t24.5 -91.5q0 -21 -4 -43q-163 -80 -365 -80 q-262 0 -418 199q-72 -92 -131 -128q-112 -68 -242.5 -68t-223.5 39.5t-159 108.5q-141 146 -141 366zM283 494q0 -156 87 -247q79 -83 192 -83q52 0 102.5 20.5t91.5 61.5q92 92 92 248q0 148 -84 241q-80 88 -201 88q-117 0 -195 -88q-85 -96 -85 -241zM1063 573h520 q-8 111 -72.5 187t-181.5 76t-186.5 -73t-79.5 -190z" />
<glyph unicode="&#x178;" horiz-adv-x="1181" d="M-2 1303q58 32 124 32t102 -13t61 -52l319 -514l318 512q23 39 53.5 53t69.5 14q94 0 141 -30l-475 -740v-481q0 -96 -117 -96q-70 0 -113 10v565zM286 1611.5q0 51.5 36 87t87 35.5t87 -35.5t36 -86.5t-36 -87t-87 -36t-87 35.5t-36 87zM661 1611.5q0 51.5 36 87 t87 35.5t87 -35.5t36 -86.5t-36 -87t-87 -36t-87 35.5t-36 87z" />
<glyph unicode="&#x2c6;" horiz-adv-x="954" d="M184 1098l205 317q62 25 116 25t82.5 -16.5t51.5 -47.5l178 -276q-46 -23 -91 -23q-85 0 -116 51l-108 185l-117 -193q-28 -43 -102 -43q-49 0 -99 21z" />
<glyph unicode="&#x2dc;" horiz-adv-x="880" d="M98 1206q25 104 70 164t131 60q64 0 143 -50q29 -18 55.5 -33.5t50.5 -15.5t36 13.5t23 29.5q28 43 67 43q43 0 78 -39q-35 -109 -76 -166t-112 -57t-151.5 49t-107.5 49t-39 -13t-23.5 -29.5t-25.5 -30t-41 -13.5q-41 0 -78 39z" />
<glyph unicode="&#x2000;" horiz-adv-x="909" />
<glyph unicode="&#x2001;" horiz-adv-x="1819" />
<glyph unicode="&#x2002;" horiz-adv-x="909" />
<glyph unicode="&#x2003;" horiz-adv-x="1819" />
<glyph unicode="&#x2004;" horiz-adv-x="606" />
<glyph unicode="&#x2005;" horiz-adv-x="454" />
<glyph unicode="&#x2006;" horiz-adv-x="303" />
<glyph unicode="&#x2007;" horiz-adv-x="303" />
<glyph unicode="&#x2008;" horiz-adv-x="227" />
<glyph unicode="&#x2009;" horiz-adv-x="363" />
<glyph unicode="&#x200a;" horiz-adv-x="101" />
<glyph unicode="&#x2010;" horiz-adv-x="727" d="M55 520q0 59 25.5 82t62.5 23h521q8 -64 8 -95q0 -106 -86 -106h-520q-11 88 -11 96z" />
<glyph unicode="&#x2011;" horiz-adv-x="727" d="M55 520q0 59 25.5 82t62.5 23h521q8 -64 8 -95q0 -106 -86 -106h-520q-11 88 -11 96z" />
<glyph unicode="&#x2012;" horiz-adv-x="727" d="M55 520q0 59 25.5 82t62.5 23h521q8 -64 8 -95q0 -106 -86 -106h-520q-11 88 -11 96z" />
<glyph unicode="&#x2013;" horiz-adv-x="929" d="M55 520q0 59 25.5 82t62.5 23h721q10 -37 10 -95q0 -106 -86 -106h-722q-11 88 -11 96z" />
<glyph unicode="&#x2014;" horiz-adv-x="1343" d="M55 520q0 59 25.5 82t62.5 23h1135q10 -37 10 -95q0 -106 -86 -106h-1136q-11 88 -11 96z" />
<glyph unicode="&#x2018;" horiz-adv-x="374" d="M68 1014q0 77 32 149q89 213 254 213h15l-117 -370q-26 -82 -96 -82q-35 0 -61.5 24.5t-26.5 65.5z" />
<glyph unicode="&#x2019;" horiz-adv-x="374" d="M29 920l116 370q25 82 97 82q35 0 61.5 -24.5t26.5 -65.5q0 -75 -40 -168.5t-105.5 -143.5t-141.5 -50h-14z" />
<glyph unicode="&#x201a;" horiz-adv-x="421" d="M8 -233l117 370q25 82 96 82q41 0 64.5 -25.5t23.5 -65.5t-12 -85q-42 -156 -133 -226q-66 -50 -141 -50h-15z" />
<glyph unicode="&#x201c;" horiz-adv-x="722" d="M80 1014q0 41 12 86q42 156 134 226q65 50 141 50h14l-117 -370q-26 -82 -96 -82q-35 0 -61.5 24.5t-26.5 65.5zM420 1014q0 41 12 86q42 156 134 226q65 50 141 50h14l-117 -370q-26 -82 -96 -82q-35 0 -61.5 24.5t-26.5 65.5z" />
<glyph unicode="&#x201d;" horiz-adv-x="714" d="M49 920l117 370q25 82 96 82q35 0 61.5 -24.5t26.5 -65.5t-12 -86q-42 -156 -134 -226q-65 -50 -141 -50h-14zM389 920l117 370q25 82 96 82q35 0 61.5 -24.5t26.5 -65.5t-12 -86q-42 -156 -134 -226q-65 -50 -141 -50h-14z" />
<glyph unicode="&#x201e;" horiz-adv-x="714" d="M2 -233l117 370q25 82 96 82q41 0 64.5 -25.5t23.5 -65.5t-12 -85q-42 -156 -133 -226q-66 -50 -141 -50h-15zM338 -233l117 370q25 82 96 82q41 0 64.5 -25.5t23.5 -65.5t-12 -85q-42 -156 -133 -226q-66 -50 -141 -50h-15z" />
<glyph unicode="&#x2022;" horiz-adv-x="864" d="M125 633q0 126 91 215q92 90 216 90q127 0 217 -90t90 -215q0 -127 -90 -217t-217 -90q-124 0 -216 90q-91 89 -91 217z" />
<glyph unicode="&#x2026;" horiz-adv-x="1456" d="M68 115.5q0 54.5 38.5 93.5t93 39t94.5 -39t40 -93t-40 -93t-94 -39t-93 38.5t-39 93zM576 117.5q0 54.5 38.5 93.5t93 39t94.5 -39t40 -93t-40 -93t-94 -39t-93 38.5t-39 93zM1090 117.5q0 54.5 38.5 93.5t93 39t94.5 -39t40 -93t-40 -93t-94 -39t-93 38.5t-39 93z" />
<glyph unicode="&#x202f;" horiz-adv-x="363" />
<glyph unicode="&#x2039;" horiz-adv-x="696" d="M59 397v158l482 326q30 -57 30 -109q0 -97 -73 -141l-246 -150l246 -145q73 -42 73 -135q0 -55 -30 -113z" />
<glyph unicode="&#x203a;" horiz-adv-x="696" d="M125 198q0 95 74 140l245 149l-245 146q-74 43 -74 135q0 58 31 113l481 -310v-157l-481 -326q-31 59 -31 110z" />
<glyph unicode="&#x205f;" horiz-adv-x="454" />
<glyph unicode="&#x20ac;" horiz-adv-x="1159" d="M80 543q0 75 61 75h90v87h-139q-6 36 -6 65q0 76 61 76h99q38 251 185 384q137 124 343 124q132 0 242 -42q35 -14 76 -30v-35q0 -78 -25 -107.5t-60 -29.5t-53 6t-40 12q-65 19 -132 19q-123 0 -198.5 -79t-100.5 -222h387q9 -27 9 -66q0 -75 -62 -75h-352v-87h399 q8 -24 8 -65q0 -76 -61 -76h-326q25 -141 103 -217t194 -76q89 0 180 31q17 6 39 6q97 0 97 -139q0 -79 -230 -102q-55 -5 -94 -5q-215 0 -350 130.5t-178 371.5h-158q-8 24 -8 66z" />
<glyph unicode="&#x2122;" horiz-adv-x="1302" d="M63 1286q0 45 48 45h444l6 -51q0 -53 -49 -53h-143v-500h-117v500h-182q-7 35 -7 59zM590 733l59 588q28 14 73.5 14t68 -12t30.5 -45l99 -385l102 385q10 33 29.5 46t65.5 13t73 -10l57 -594q-25 -10 -52.5 -10t-42.5 7t-17 30l-37 459l-115 -408q-12 -39 -70 -39 q-42 0 -57 6l-119 439l-41 -457q-2 -23 -16 -30t-39.5 -7t-50.5 10z" />
<glyph unicode="&#xe000;" horiz-adv-x="993" d="M0 0v993h993v-993h-993z" />
</font>
</defs>
</svg>
